# Blender v2.81 (sub 16) OBJ File: 'PipesV1.blend'
# www.blender.org
mtllib Pipe01.mtl
o Pipe__Cube.001
v -7.260004 -0.260002 9.999004
v -7.260004 14.260002 9.999004
v -7.260004 -0.260002 -9.999004
v -7.260004 14.260002 -9.999004
v 7.260004 -0.260002 9.999004
v 7.260004 14.260002 9.999004
v 7.260004 -0.260002 -9.999004
v 7.260004 14.260002 -9.999004
v -7.260003 -0.260001 -4.999501
v -7.260004 -0.260002 0.000000
v -7.260004 -0.260002 4.999502
v -9.301879 3.029687 9.999002
v -9.982507 7.000000 9.999003
v -9.301880 10.970314 9.999003
v -7.260004 14.260002 4.999502
v -7.260004 14.260002 0.000000
v -7.260003 14.260002 -4.999501
v -9.301880 10.970314 -9.999003
v -9.982507 7.000000 -9.999003
v -9.301879 3.029687 -9.999002
v 3.970314 -2.301877 -9.999003
v -0.000000 -2.982504 -9.999003
v -3.970315 -2.301876 -9.999002
v -3.970314 16.301876 -9.999003
v 0.000000 16.982506 -9.999003
v 3.970315 16.301876 -9.999002
v 9.301880 10.970314 -9.999003
v 9.982507 7.000000 -9.999003
v 9.301879 3.029687 -9.999002
v 7.260003 -0.260001 4.999501
v 7.260004 -0.260002 -0.000000
v 7.260004 -0.260002 -4.999502
v 7.260004 14.260002 -4.999502
v 7.260004 14.260002 -0.000000
v 7.260003 14.260002 4.999501
v 9.301880 10.970314 9.999003
v 9.982507 7.000000 9.999003
v 9.301879 3.029687 9.999002
v -3.970315 -2.301876 9.999002
v -0.000000 -2.982504 9.999003
v 3.970314 -2.301877 9.999003
v 3.970315 16.301876 9.999002
v 0.000000 16.982506 9.999003
v -3.970314 16.301876 9.999003
v -9.301880 3.029687 4.999501
v -9.982505 7.000000 4.999502
v -9.301881 10.970314 4.999501
v -9.301880 3.029686 0.000000
v -9.982506 7.000000 -0.000000
v -9.301880 10.970314 0.000000
v -9.301880 3.029687 -4.999501
v -9.982506 7.000000 -4.999501
v -9.301880 10.970314 -4.999501
v 9.301880 3.029687 -4.999501
v 9.982505 7.000000 -4.999502
v 9.301881 10.970314 -4.999501
v 9.301880 3.029686 -0.000000
v 9.982506 7.000000 0.000000
v 9.301880 10.970314 -0.000000
v 9.301880 3.029687 4.999501
v 9.982506 7.000000 4.999501
v 9.301880 10.970314 4.999501
v -3.970315 -2.301877 -4.999501
v -0.000000 -2.982502 -4.999502
v 3.970315 -2.301878 -4.999501
v -3.970315 -2.301877 -0.000000
v -0.000000 -2.982503 0.000000
v 3.970315 -2.301877 -0.000000
v -3.970315 -2.301877 4.999501
v -0.000000 -2.982503 4.999501
v 3.970315 -2.301877 4.999501
v 3.970315 16.301878 -4.999501
v 0.000000 16.982502 -4.999502
v -3.970315 16.301880 -4.999501
v 3.970315 16.301878 -0.000000
v 0.000000 16.982502 0.000000
v -3.970315 16.301876 -0.000000
v 3.970315 16.301876 4.999501
v 0.000000 16.982504 4.999501
v -3.970315 16.301878 4.999501
v -4.480000 -0.500000 10.000000
v -4.480000 1.500000 10.000000
v -4.480000 -0.500000 -10.000000
v -4.480000 1.500000 -10.000000
v 4.480000 -0.500000 10.000000
v 4.480000 1.500000 10.000000
v 4.480000 -0.500000 -10.000000
v 4.480000 1.500000 -10.000000
v 1.493333 -0.500000 -10.000000
v -1.493333 -0.500000 -10.000000
v -1.493333 1.500000 -10.000000
v 1.493333 1.500000 -10.000000
v -1.493333 -0.500000 10.000000
v 1.493333 -0.500000 10.000000
v 1.493333 1.500000 10.000000
v -1.493333 1.500000 10.000000
v -6.411504 0.588498 9.999004
v -6.411504 13.411503 9.999004
v -6.411504 0.588498 -9.999004
v -6.411504 13.411503 -9.999004
v 6.411504 0.588498 9.999004
v 6.411504 13.411503 9.999004
v 6.411504 0.588498 -9.999004
v 6.411504 13.411503 -9.999004
v -6.411503 0.588499 -4.999501
v -6.411504 0.588498 0.000000
v -6.411504 0.588498 4.999502
v -8.179957 3.455347 9.999002
v -8.782507 7.000000 9.999003
v -8.179958 10.544653 9.999003
v -6.411504 13.411503 4.999502
v -6.411504 13.411503 0.000000
v -6.411503 13.411503 -4.999501
v -8.179958 10.544653 -9.999003
v -8.782507 7.000000 -9.999003
v -8.179957 3.455347 -9.999002
v 3.544654 -1.179955 -9.999003
v -0.000000 -1.782504 -9.999003
v -3.544654 -1.179955 -9.999002
v -3.544654 15.179955 -9.999003
v 0.000000 15.782505 -9.999003
v 3.544654 15.179955 -9.999002
v 8.179958 10.544653 -9.999003
v 8.782507 7.000000 -9.999003
v 8.179957 3.455347 -9.999002
v 6.411503 0.588499 4.999501
v 6.411504 0.588498 -0.000000
v 6.411504 0.588498 -4.999502
v 6.411504 13.411503 -4.999502
v 6.411504 13.411503 -0.000000
v 6.411503 13.411503 4.999501
v 8.179958 10.544653 9.999003
v 8.782507 7.000000 9.999003
v 8.179957 3.455347 9.999002
v -3.544654 -1.179955 9.999002
v -0.000000 -1.782504 9.999003
v 3.544654 -1.179955 9.999003
v 3.544654 15.179955 9.999002
v 0.000000 15.782505 9.999003
v -3.544654 15.179955 9.999003
v -8.179958 3.455347 4.999501
v -8.782504 7.000000 4.999502
v -8.179959 10.544653 4.999501
v -8.179958 3.455347 0.000000
v -8.782505 7.000000 -0.000000
v -8.179958 10.544654 0.000000
v -8.179958 3.455347 -4.999501
v -8.782506 7.000000 -4.999501
v -8.179958 10.544653 -4.999501
v 8.179958 3.455347 -4.999501
v 8.782504 7.000000 -4.999502
v 8.179959 10.544653 -4.999501
v 8.179958 3.455347 -0.000000
v 8.782505 7.000000 0.000000
v 8.179958 10.544654 -0.000000
v 8.179958 3.455347 4.999501
v 8.782506 7.000000 4.999501
v 8.179958 10.544653 4.999501
v -3.544655 -1.179956 -4.999501
v -0.000000 -1.782502 -4.999502
v 3.544654 -1.179957 -4.999501
v -3.544655 -1.179956 -0.000000
v -0.000000 -1.782503 0.000000
v 3.544655 -1.179955 -0.000000
v -3.544654 -1.179955 4.999501
v -0.000000 -1.782503 4.999501
v 3.544654 -1.179956 4.999501
v 3.544655 15.179956 -4.999501
v 0.000000 15.782503 -4.999502
v -3.544654 15.179958 -4.999501
v 3.544655 15.179956 -0.000000
v 0.000000 15.782503 0.000000
v -3.544655 15.179955 -0.000000
v 3.544654 15.179955 4.999501
v 0.000000 15.782504 4.999501
v -3.544654 15.179956 4.999501
vt 0.437500 0.062500
vt 0.500000 0.062500
vt 0.500000 0.125000
vt 0.437500 0.125000
vt 0.562500 0.062500
vt 0.562500 0.125000
vt 0.500000 0.187500
vt 0.437500 0.187500
vt 0.562500 0.187500
vt 0.375000 0.000000
vt 0.437500 0.000000
vt 0.375000 0.062500
vt 0.500000 0.000000
vt 0.562500 0.000000
vt 0.625000 0.000000
vt 0.625000 0.062500
vt 0.625000 0.125000
vt 0.625000 0.187500
vt 0.625000 0.250000
vt 0.562500 0.250000
vt 0.500000 0.250000
vt 0.437500 0.250000
vt 0.375000 0.187500
vt 0.375000 0.250000
vt 0.375000 0.125000
vt 0.437500 0.562500
vt 0.500000 0.562500
vt 0.500000 0.625000
vt 0.437500 0.625000
vt 0.562500 0.562500
vt 0.562500 0.625000
vt 0.500000 0.687500
vt 0.437500 0.687500
vt 0.562500 0.687500
vt 0.375000 0.500000
vt 0.437500 0.500000
vt 0.375000 0.562500
vt 0.500000 0.500000
vt 0.562500 0.500000
vt 0.625000 0.500000
vt 0.625000 0.562500
vt 0.625000 0.625000
vt 0.625000 0.687500
vt 0.625000 0.750000
vt 0.562500 0.750000
vt 0.500000 0.750000
vt 0.437500 0.750000
vt 0.375000 0.687500
vt 0.375000 0.750000
vt 0.375000 0.625000
vt 0.187500 0.562500
vt 0.250000 0.562500
vt 0.250000 0.625000
vt 0.187500 0.625000
vt 0.312500 0.562500
vt 0.312500 0.625000
vt 0.250000 0.687500
vt 0.187500 0.687500
vt 0.312500 0.687500
vt 0.125000 0.500000
vt 0.187500 0.500000
vt 0.125000 0.562500
vt 0.250000 0.500000
vt 0.312500 0.500000
vt 0.312500 0.750000
vt 0.250000 0.750000
vt 0.187500 0.750000
vt 0.125000 0.687500
vt 0.125000 0.750000
vt 0.125000 0.625000
vt 0.687500 0.562500
vt 0.750000 0.562500
vt 0.750000 0.625000
vt 0.687500 0.625000
vt 0.812500 0.562500
vt 0.812500 0.625000
vt 0.750000 0.687500
vt 0.687500 0.687500
vt 0.812500 0.687500
vt 0.687500 0.500000
vt 0.750000 0.500000
vt 0.812500 0.500000
vt 0.875000 0.500000
vt 0.875000 0.562500
vt 0.875000 0.625000
vt 0.875000 0.687500
vt 0.875000 0.750000
vt 0.812500 0.750000
vt 0.750000 0.750000
vt 0.687500 0.750000
vt 0.375000 0.000000
vt 0.625000 0.000000
vt 0.625000 0.250000
vt 0.375000 0.250000
vt 0.375000 0.416667
vt 0.625000 0.416667
vt 0.625000 0.500000
vt 0.375000 0.500000
vt 0.625000 0.750000
vt 0.375000 0.750000
vt 0.375000 0.916667
vt 0.625000 0.916667
vt 0.625000 1.000000
vt 0.375000 1.000000
vt 0.291667 0.500000
vt 0.291667 0.750000
vt 0.791667 0.500000
vt 0.875000 0.500000
vt 0.875000 0.750000
vt 0.791667 0.750000
vt 0.708333 0.500000
vt 0.708333 0.750000
vt 0.125000 0.500000
vt 0.208333 0.500000
vt 0.208333 0.750000
vt 0.125000 0.750000
vt 0.625000 0.833333
vt 0.375000 0.833333
vt 0.625000 0.333333
vt 0.375000 0.333333
vt 0.437500 0.062500
vt 0.437500 0.125000
vt 0.500000 0.125000
vt 0.500000 0.062500
vt 0.562500 0.125000
vt 0.562500 0.062500
vt 0.437500 0.187500
vt 0.500000 0.187500
vt 0.562500 0.187500
vt 0.375000 0.000000
vt 0.375000 0.062500
vt 0.437500 0.000000
vt 0.500000 0.000000
vt 0.562500 0.000000
vt 0.625000 0.062500
vt 0.625000 0.000000
vt 0.625000 0.125000
vt 0.625000 0.187500
vt 0.562500 0.250000
vt 0.625000 0.250000
vt 0.500000 0.250000
vt 0.437500 0.250000
vt 0.375000 0.187500
vt 0.375000 0.250000
vt 0.375000 0.125000
vt 0.437500 0.562500
vt 0.437500 0.625000
vt 0.500000 0.625000
vt 0.500000 0.562500
vt 0.562500 0.625000
vt 0.562500 0.562500
vt 0.437500 0.687500
vt 0.500000 0.687500
vt 0.562500 0.687500
vt 0.375000 0.500000
vt 0.375000 0.562500
vt 0.437500 0.500000
vt 0.500000 0.500000
vt 0.562500 0.500000
vt 0.625000 0.562500
vt 0.625000 0.500000
vt 0.625000 0.625000
vt 0.625000 0.687500
vt 0.562500 0.750000
vt 0.625000 0.750000
vt 0.500000 0.750000
vt 0.437500 0.750000
vt 0.375000 0.687500
vt 0.375000 0.750000
vt 0.375000 0.625000
vt 0.187500 0.562500
vt 0.187500 0.625000
vt 0.250000 0.625000
vt 0.250000 0.562500
vt 0.312500 0.625000
vt 0.312500 0.562500
vt 0.187500 0.687500
vt 0.250000 0.687500
vt 0.312500 0.687500
vt 0.125000 0.500000
vt 0.125000 0.562500
vt 0.187500 0.500000
vt 0.250000 0.500000
vt 0.312500 0.500000
vt 0.312500 0.750000
vt 0.250000 0.750000
vt 0.187500 0.750000
vt 0.125000 0.687500
vt 0.125000 0.750000
vt 0.125000 0.625000
vt 0.687500 0.562500
vt 0.687500 0.625000
vt 0.750000 0.625000
vt 0.750000 0.562500
vt 0.812500 0.625000
vt 0.812500 0.562500
vt 0.687500 0.687500
vt 0.750000 0.687500
vt 0.812500 0.687500
vt 0.687500 0.500000
vt 0.750000 0.500000
vt 0.812500 0.500000
vt 0.875000 0.562500
vt 0.875000 0.500000
vt 0.875000 0.625000
vt 0.875000 0.687500
vt 0.812500 0.750000
vt 0.875000 0.750000
vt 0.750000 0.750000
vt 0.687500 0.750000
vn -0.9350 -0.3547 0.0000
vn -1.0000 0.0000 -0.0000
vn -0.9350 0.3547 -0.0000
vn -0.7071 -0.7071 0.0000
vn -0.7071 0.7071 0.0000
vn 0.9350 -0.3547 -0.0000
vn 1.0000 0.0000 0.0000
vn 0.9350 0.3547 0.0000
vn 0.7071 -0.7071 -0.0000
vn 0.7071 0.7071 -0.0000
vn -0.3547 -0.9350 -0.0000
vn -0.0000 -1.0000 0.0000
vn 0.3547 -0.9350 0.0000
vn 0.3547 0.9350 0.0000
vn 0.0000 1.0000 0.0000
vn -0.3547 0.9350 0.0000
vn 0.0000 0.0000 -1.0000
vn 0.0000 0.0000 1.0000
vn 0.9357 0.3528 -0.0000
vn 0.9357 -0.3528 0.0000
vn -0.9357 0.3528 0.0000
vn -0.9357 -0.3528 -0.0000
vn 0.3528 0.9357 0.0000
vn -0.3528 0.9357 -0.0000
vn -0.3528 -0.9357 -0.0000
vn 0.3528 -0.9357 -0.0000
usemtl None
s 1
f 45/1/1 46/2/2 49/3/2 48/4/1
f 46/2/2 47/5/3 50/6/3 49/3/2
f 48/4/1 49/3/2 52/7/2 51/8/1
f 49/3/2 50/6/3 53/9/3 52/7/2
f 1/10/4 12/11/1 45/1/1 11/12/4
f 12/11/1 13/13/2 46/2/2 45/1/1
f 13/13/2 14/14/3 47/5/3 46/2/2
f 14/14/3 2/15/5 15/16/5 47/5/3
f 47/5/3 15/16/5 16/17/5 50/6/3
f 50/6/3 16/17/5 17/18/5 53/9/3
f 53/9/3 17/18/5 4/19/5 18/20/3
f 52/7/2 53/9/3 18/20/3 19/21/2
f 51/8/1 52/7/2 19/21/2 20/22/1
f 9/23/4 51/8/1 20/22/1 3/24/4
f 10/25/4 48/4/1 51/8/1 9/23/4
f 11/12/4 45/1/1 48/4/1 10/25/4
f 54/26/6 55/27/7 58/28/7 57/29/6
f 55/27/7 56/30/8 59/31/8 58/28/7
f 57/29/6 58/28/7 61/32/7 60/33/6
f 58/28/7 59/31/8 62/34/8 61/32/7
f 7/35/9 29/36/6 54/26/6 32/37/9
f 29/36/6 28/38/7 55/27/7 54/26/6
f 28/38/7 27/39/8 56/30/8 55/27/7
f 27/39/8 8/40/10 33/41/10 56/30/8
f 56/30/8 33/41/10 34/42/10 59/31/8
f 59/31/8 34/42/10 35/43/10 62/34/8
f 62/34/8 35/43/10 6/44/10 36/45/8
f 61/32/7 62/34/8 36/45/8 37/46/7
f 60/33/6 61/32/7 37/46/7 38/47/6
f 30/48/9 60/33/6 38/47/6 5/49/9
f 31/50/9 57/29/6 60/33/6 30/48/9
f 32/37/9 54/26/6 57/29/6 31/50/9
f 63/51/11 64/52/12 67/53/12 66/54/11
f 64/52/12 65/55/13 68/56/13 67/53/12
f 66/54/11 67/53/12 70/57/12 69/58/11
f 67/53/12 68/56/13 71/59/13 70/57/12
f 3/60/4 23/61/11 63/51/11 9/62/4
f 23/61/11 22/63/12 64/52/12 63/51/11
f 22/63/12 21/64/13 65/55/13 64/52/12
f 21/64/13 7/35/9 32/37/9 65/55/13
f 65/55/13 32/37/9 31/50/9 68/56/13
f 68/56/13 31/50/9 30/48/9 71/59/13
f 71/59/13 30/48/9 5/49/9 41/65/13
f 70/57/12 71/59/13 41/65/13 40/66/12
f 69/58/11 70/57/12 40/66/12 39/67/11
f 11/68/4 69/58/11 39/67/11 1/69/4
f 10/70/4 66/54/11 69/58/11 11/68/4
f 9/62/4 63/51/11 66/54/11 10/70/4
f 72/71/14 73/72/15 76/73/15 75/74/14
f 73/72/15 74/75/16 77/76/16 76/73/15
f 75/74/14 76/73/15 79/77/15 78/78/14
f 76/73/15 77/76/16 80/79/16 79/77/15
f 8/40/10 26/80/14 72/71/14 33/41/10
f 26/80/14 25/81/15 73/72/15 72/71/14
f 25/81/15 24/82/16 74/75/16 73/72/15
f 24/82/16 4/83/5 17/84/5 74/75/16
f 74/75/16 17/84/5 16/85/5 77/76/16
f 77/76/16 16/85/5 15/86/5 80/79/16
f 80/79/16 15/86/5 2/87/5 44/88/16
f 79/77/15 80/79/16 44/88/16 43/89/15
f 78/78/14 79/77/15 43/89/15 42/90/14
f 35/43/10 78/78/14 42/90/14 6/44/10
f 34/42/10 75/74/14 78/78/14 35/43/10
f 33/41/10 72/71/14 75/74/14 34/42/10
f 81/91/2 82/92/2 84/93/2 83/94/2
f 89/95/17 92/96/17 88/97/17 87/98/17
f 87/98/7 88/97/7 86/99/7 85/100/7
f 93/101/18 96/102/18 82/103/18 81/104/18
f 89/105/12 87/98/12 85/100/12 94/106/12
f 91/107/15 84/108/15 82/109/15 96/110/15
f 88/97/15 92/111/15 95/112/15 86/99/15
f 92/111/15 91/107/15 96/110/15 95/112/15
f 83/113/12 90/114/12 93/115/12 81/116/12
f 90/114/12 89/105/12 94/106/12 93/115/12
f 85/100/18 86/99/18 95/117/18 94/118/18
f 94/118/18 95/117/18 96/102/18 93/101/18
f 83/94/17 84/93/17 91/119/17 90/120/17
f 90/120/17 91/119/17 92/96/17 89/95/17
f 141/121/19 144/122/19 145/123/7 142/124/7
f 142/124/7 145/123/7 146/125/20 143/126/20
f 144/122/19 147/127/19 148/128/7 145/123/7
f 145/123/7 148/128/7 149/129/20 146/125/20
f 97/130/10 107/131/10 141/121/19 108/132/19
f 108/132/19 141/121/19 142/124/7 109/133/7
f 109/133/7 142/124/7 143/126/20 110/134/20
f 110/134/20 143/126/20 111/135/9 98/136/9
f 143/126/20 146/125/20 112/137/9 111/135/9
f 146/125/20 149/129/20 113/138/9 112/137/9
f 149/129/20 114/139/20 100/140/9 113/138/9
f 148/128/7 115/141/7 114/139/20 149/129/20
f 147/127/19 116/142/19 115/141/7 148/128/7
f 105/143/10 99/144/10 116/142/19 147/127/19
f 106/145/10 105/143/10 147/127/19 144/122/19
f 107/131/10 106/145/10 144/122/19 141/121/19
f 150/146/21 153/147/21 154/148/2 151/149/2
f 151/149/2 154/148/2 155/150/22 152/151/22
f 153/147/21 156/152/21 157/153/2 154/148/2
f 154/148/2 157/153/2 158/154/22 155/150/22
f 103/155/5 128/156/5 150/146/21 125/157/21
f 125/157/21 150/146/21 151/149/2 124/158/2
f 124/158/2 151/149/2 152/151/22 123/159/22
f 123/159/22 152/151/22 129/160/4 104/161/4
f 152/151/22 155/150/22 130/162/4 129/160/4
f 155/150/22 158/154/22 131/163/4 130/162/4
f 158/154/22 132/164/22 102/165/4 131/163/4
f 157/153/2 133/166/2 132/164/22 158/154/22
f 156/152/21 134/167/21 133/166/2 157/153/2
f 126/168/5 101/169/5 134/167/21 156/152/21
f 127/170/5 126/168/5 156/152/21 153/147/21
f 128/156/5 127/170/5 153/147/21 150/146/21
f 159/171/23 162/172/23 163/173/15 160/174/15
f 160/174/15 163/173/15 164/175/24 161/176/24
f 162/172/23 165/177/23 166/178/15 163/173/15
f 163/173/15 166/178/15 167/179/24 164/175/24
f 99/180/10 105/181/10 159/171/23 119/182/23
f 119/182/23 159/171/23 160/174/15 118/183/15
f 118/183/15 160/174/15 161/176/24 117/184/24
f 117/184/24 161/176/24 128/156/5 103/155/5
f 161/176/24 164/175/24 127/170/5 128/156/5
f 164/175/24 167/179/24 126/168/5 127/170/5
f 167/179/24 137/185/24 101/169/5 126/168/5
f 166/178/15 136/186/15 137/185/24 167/179/24
f 165/177/23 135/187/23 136/186/15 166/178/15
f 107/188/10 97/189/10 135/187/23 165/177/23
f 106/190/10 107/188/10 165/177/23 162/172/23
f 105/181/10 106/190/10 162/172/23 159/171/23
f 168/191/25 171/192/25 172/193/12 169/194/12
f 169/194/12 172/193/12 173/195/26 170/196/26
f 171/192/25 174/197/25 175/198/12 172/193/12
f 172/193/12 175/198/12 176/199/26 173/195/26
f 104/161/4 129/160/4 168/191/25 122/200/25
f 122/200/25 168/191/25 169/194/12 121/201/12
f 121/201/12 169/194/12 170/196/26 120/202/26
f 120/202/26 170/196/26 113/203/9 100/204/9
f 170/196/26 173/195/26 112/205/9 113/203/9
f 173/195/26 176/199/26 111/206/9 112/205/9
f 176/199/26 140/207/26 98/208/9 111/206/9
f 175/198/12 139/209/12 140/207/26 176/199/26
f 174/197/25 138/210/25 139/209/12 175/198/12
f 131/163/4 102/165/4 138/210/25 174/197/25
f 130/162/4 131/163/4 174/197/25 171/192/25
f 129/160/4 130/162/4 171/192/25 168/191/25
f 12/11/18 1/10/18 97/130/18 108/132/18
f 13/13/18 12/11/18 108/132/18 109/133/18
f 14/14/18 13/13/18 109/133/18 110/134/18
f 2/15/18 14/14/18 110/134/18 98/136/18
f 18/20/17 4/19/17 100/140/17 114/139/17
f 19/21/17 18/20/17 114/139/17 115/141/17
f 20/22/17 19/21/17 115/141/17 116/142/17
f 3/24/17 20/22/17 116/142/17 99/144/17
f 7/35/17 21/64/17 117/184/17 103/155/17
f 21/64/17 22/63/17 118/183/17 117/184/17
f 22/63/17 23/61/17 119/182/17 118/183/17
f 23/61/17 3/60/17 99/180/17 119/182/17
f 4/83/17 24/82/17 120/202/17 100/204/17
f 24/82/17 25/81/17 121/201/17 120/202/17
f 25/81/17 26/80/17 122/200/17 121/201/17
f 26/80/17 8/40/17 104/161/17 122/200/17
f 8/40/17 27/39/17 123/159/17 104/161/17
f 27/39/17 28/38/17 124/158/17 123/159/17
f 28/38/17 29/36/17 125/157/17 124/158/17
f 29/36/17 7/35/17 103/155/17 125/157/17
f 36/45/18 6/44/18 102/165/18 132/164/18
f 37/46/18 36/45/18 132/164/18 133/166/18
f 38/47/18 37/46/18 133/166/18 134/167/18
f 5/49/18 38/47/18 134/167/18 101/169/18
f 1/69/18 39/67/18 135/187/18 97/189/18
f 39/67/18 40/66/18 136/186/18 135/187/18
f 40/66/18 41/65/18 137/185/18 136/186/18
f 41/65/18 5/49/18 101/169/18 137/185/18
f 6/44/18 42/90/18 138/210/18 102/165/18
f 42/90/18 43/89/18 139/209/18 138/210/18
f 43/89/18 44/88/18 140/207/18 139/209/18
f 44/88/18 2/87/18 98/208/18 140/207/18
