# Blender v2.81 (sub 16) OBJ File: 'PipesV1.blend'
# www.blender.org
mtllib Pipe.mtl
o Pipe__Cube.001
v -0.237896 -0.237896 0.327647
v -0.237896 0.237896 0.327647
v -0.237896 -0.237896 -0.327647
v -0.237896 0.237896 -0.327647
v 0.237896 -0.237896 0.327647
v 0.237896 0.237896 0.327647
v 0.237896 -0.237896 -0.327647
v 0.237896 0.237896 -0.327647
v -0.237896 -0.237896 -0.163824
v -0.237896 -0.237896 0.000000
v -0.237896 -0.237896 0.163824
v -0.304804 -0.130099 0.327647
v -0.327107 0.000000 0.327647
v -0.304804 0.130099 0.327647
v -0.237896 0.237896 0.163824
v -0.237896 0.237896 0.000000
v -0.237896 0.237896 -0.163824
v -0.304804 0.130099 -0.327647
v -0.327107 0.000000 -0.327647
v -0.304804 -0.130099 -0.327647
v 0.130099 -0.304804 -0.327647
v -0.000000 -0.327107 -0.327647
v -0.130099 -0.304804 -0.327647
v -0.130099 0.304804 -0.327647
v 0.000000 0.327107 -0.327647
v 0.130099 0.304804 -0.327647
v 0.304804 0.130099 -0.327647
v 0.327107 0.000000 -0.327647
v 0.304804 -0.130099 -0.327647
v 0.237896 -0.237896 0.163824
v 0.237896 -0.237896 0.000000
v 0.237896 -0.237896 -0.163824
v 0.237896 0.237896 -0.163824
v 0.237896 0.237896 0.000000
v 0.237896 0.237896 0.163824
v 0.304804 0.130099 0.327647
v 0.327107 0.000000 0.327647
v 0.304804 -0.130099 0.327647
v -0.130099 -0.304804 0.327647
v -0.000000 -0.327107 0.327647
v 0.130099 -0.304804 0.327647
v 0.130099 0.304804 0.327647
v 0.000000 0.327107 0.327647
v -0.130099 0.304804 0.327647
v -0.304804 -0.130099 0.163824
v -0.327107 0.000000 0.163824
v -0.304804 0.130099 0.163824
v -0.304804 -0.130099 0.000000
v -0.327107 0.000000 0.000000
v -0.304804 0.130099 0.000000
v -0.304804 -0.130099 -0.163824
v -0.327107 0.000000 -0.163824
v -0.304804 0.130099 -0.163824
v 0.304804 -0.130099 -0.163824
v 0.327107 0.000000 -0.163824
v 0.304804 0.130099 -0.163824
v 0.304804 -0.130099 0.000000
v 0.327107 0.000000 0.000000
v 0.304804 0.130099 -0.000000
v 0.304804 -0.130099 0.163824
v 0.327107 0.000000 0.163824
v 0.304804 0.130099 0.163824
v -0.130099 -0.304804 -0.163824
v -0.000000 -0.327107 -0.163824
v 0.130099 -0.304804 -0.163824
v -0.130099 -0.304804 0.000000
v -0.000000 -0.327107 0.000000
v 0.130099 -0.304804 -0.000000
v -0.130099 -0.304804 0.163824
v -0.000000 -0.327107 0.163824
v 0.130099 -0.304804 0.163824
v 0.130099 0.304804 -0.163824
v 0.000000 0.327107 -0.163824
v -0.130099 0.304804 -0.163824
v 0.130099 0.304804 0.000000
v 0.000000 0.327107 0.000000
v -0.130099 0.304804 -0.000000
v 0.130099 0.304804 0.163824
v 0.000000 0.327107 0.163824
v -0.130099 0.304804 0.163824
v -0.210092 -0.210092 0.327647
v -0.210092 0.210092 0.327647
v -0.210092 -0.210092 -0.327647
v -0.210092 0.210092 -0.327647
v 0.210092 -0.210092 0.327647
v 0.210092 0.210092 0.327647
v 0.210092 -0.210092 -0.327647
v 0.210092 0.210092 -0.327647
v -0.210092 -0.210092 -0.163824
v -0.210092 -0.210092 0.000000
v -0.210092 -0.210092 0.163824
v -0.268041 -0.116151 0.327647
v -0.287785 0.000000 0.327647
v -0.268041 0.116151 0.327647
v -0.210092 0.210092 0.163824
v -0.210092 0.210092 0.000000
v -0.210092 0.210092 -0.163824
v -0.268041 0.116151 -0.327647
v -0.287785 0.000000 -0.327647
v -0.268041 -0.116151 -0.327647
v 0.116151 -0.268041 -0.327647
v -0.000000 -0.287785 -0.327647
v -0.116151 -0.268041 -0.327647
v -0.116151 0.268041 -0.327647
v 0.000000 0.287785 -0.327647
v 0.116151 0.268041 -0.327647
v 0.268041 0.116151 -0.327647
v 0.287785 0.000000 -0.327647
v 0.268041 -0.116151 -0.327647
v 0.210092 -0.210092 0.163824
v 0.210092 -0.210092 0.000000
v 0.210092 -0.210092 -0.163824
v 0.210092 0.210092 -0.163824
v 0.210092 0.210092 0.000000
v 0.210092 0.210092 0.163824
v 0.268041 0.116151 0.327647
v 0.287785 0.000000 0.327647
v 0.268041 -0.116151 0.327647
v -0.116151 -0.268041 0.327647
v -0.000000 -0.287785 0.327647
v 0.116151 -0.268041 0.327647
v 0.116151 0.268041 0.327647
v 0.000000 0.287785 0.327647
v -0.116151 0.268041 0.327647
v -0.268041 -0.116151 0.163824
v -0.287785 0.000000 0.163824
v -0.268041 0.116151 0.163824
v -0.268041 -0.116151 0.000000
v -0.287785 0.000000 0.000000
v -0.268041 0.116151 0.000000
v -0.268041 -0.116151 -0.163824
v -0.287785 0.000000 -0.163824
v -0.268041 0.116151 -0.163824
v 0.268041 -0.116151 -0.163824
v 0.287785 0.000000 -0.163824
v 0.268041 0.116151 -0.163824
v 0.268041 -0.116151 0.000000
v 0.287785 0.000000 0.000000
v 0.268041 0.116151 -0.000000
v 0.268041 -0.116151 0.163824
v 0.287785 0.000000 0.163824
v 0.268041 0.116151 0.163824
v -0.116151 -0.268041 -0.163824
v -0.000000 -0.287785 -0.163824
v 0.116151 -0.268041 -0.163824
v -0.116151 -0.268041 0.000000
v -0.000000 -0.287785 0.000000
v 0.116151 -0.268041 -0.000000
v -0.116151 -0.268041 0.163824
v -0.000000 -0.287785 0.163824
v 0.116151 -0.268041 0.163824
v 0.116151 0.268041 -0.163824
v 0.000000 0.287785 -0.163824
v -0.116151 0.268041 -0.163824
v 0.116151 0.268041 0.000000
v 0.000000 0.287785 0.000000
v -0.116151 0.268041 -0.000000
v 0.116151 0.268041 0.163824
v 0.000000 0.287785 0.163824
v -0.116151 0.268041 0.163824
vt 0.219211 0.157197
vt 0.277705 0.157197
vt 0.277705 0.229794
vt 0.219211 0.229794
vt 0.336199 0.157197
vt 0.336199 0.229794
vt 0.277705 0.302392
vt 0.219211 0.302392
vt 0.336199 0.302392
vt 0.162988 0.084600
vt 0.219211 0.084600
vt 0.162988 0.157197
vt 0.277705 0.084600
vt 0.336199 0.084600
vt 0.392422 0.084600
vt 0.392422 0.157197
vt 0.392422 0.229795
vt 0.392422 0.302392
vt 0.392422 0.374989
vt 0.336199 0.374989
vt 0.277705 0.374989
vt 0.219211 0.374989
vt 0.162988 0.302392
vt 0.162988 0.374989
vt 0.162988 0.229794
vt 0.795065 0.302392
vt 0.736572 0.302392
vt 0.736572 0.229795
vt 0.795065 0.229795
vt 0.678078 0.302392
vt 0.678078 0.229795
vt 0.736572 0.157197
vt 0.795065 0.157197
vt 0.678078 0.157197
vt 0.851288 0.374989
vt 0.795065 0.374989
vt 0.851288 0.302392
vt 0.736572 0.374989
vt 0.678078 0.374989
vt 0.621855 0.374989
vt 0.621855 0.302392
vt 0.621855 0.229795
vt 0.621855 0.157197
vt 0.621855 0.084600
vt 0.678078 0.084600
vt 0.736572 0.084600
vt 0.795065 0.084600
vt 0.851288 0.157197
vt 0.851288 0.084600
vt 0.851288 0.229795
vt 0.106765 0.302392
vt 0.048272 0.302392
vt 0.048272 0.229794
vt 0.106765 0.229794
vt 0.966005 0.302392
vt 0.907511 0.302392
vt 0.907511 0.229795
vt 0.966005 0.229794
vt 0.048272 0.157197
vt 0.106765 0.157197
vt 0.907511 0.157197
vt 0.966005 0.157197
vt 0.106765 0.374989
vt 0.048272 0.374989
vt 0.966005 0.374989
vt 0.907511 0.374989
vt 0.907511 0.084600
vt 0.966005 0.084600
vt 0.048272 0.084600
vt 0.106765 0.084600
vt 0.565632 0.302392
vt 0.507138 0.302392
vt 0.507138 0.229795
vt 0.565632 0.229795
vt 0.448645 0.302392
vt 0.448645 0.229795
vt 0.507138 0.157197
vt 0.565632 0.157197
vt 0.448645 0.157197
vt 0.565632 0.374989
vt 0.507138 0.374989
vt 0.448645 0.374989
vt 0.448645 0.084600
vt 0.507138 0.084600
vt 0.565632 0.084600
vt 0.856564 0.523440
vt 0.856564 0.569638
vt 0.823340 0.569638
vt 0.823340 0.523440
vt 0.790115 0.569638
vt 0.790115 0.523440
vt 0.856564 0.615837
vt 0.823340 0.615837
vt 0.790115 0.615837
vt 0.887691 0.477242
vt 0.887691 0.523440
vt 0.856565 0.477242
vt 0.823340 0.477242
vt 0.790115 0.477242
vt 0.758989 0.523440
vt 0.758989 0.477242
vt 0.758989 0.569638
vt 0.758989 0.615837
vt 0.790115 0.662035
vt 0.758989 0.662035
vt 0.823340 0.662035
vt 0.856564 0.662035
vt 0.887691 0.615837
vt 0.887691 0.662035
vt 0.887691 0.569638
vt 0.532712 0.615837
vt 0.532712 0.569638
vt 0.565937 0.569638
vt 0.565937 0.615837
vt 0.599161 0.569638
vt 0.599161 0.615837
vt 0.532712 0.523440
vt 0.565937 0.523440
vt 0.599161 0.523440
vt 0.501586 0.662035
vt 0.501586 0.615837
vt 0.532712 0.662035
vt 0.565937 0.662035
vt 0.599161 0.662035
vt 0.630288 0.615837
vt 0.630288 0.662035
vt 0.630288 0.569638
vt 0.630288 0.523440
vt 0.599161 0.477242
vt 0.630288 0.477242
vt 0.565937 0.477242
vt 0.532712 0.477242
vt 0.501586 0.523440
vt 0.501586 0.477242
vt 0.501586 0.569638
vt 0.918817 0.615837
vt 0.918817 0.569638
vt 0.952041 0.569638
vt 0.952041 0.615837
vt 0.437235 0.615837
vt 0.437235 0.569638
vt 0.470460 0.569638
vt 0.470460 0.615837
vt 0.918817 0.523440
vt 0.952041 0.523440
vt 0.437235 0.523440
vt 0.470460 0.523440
vt 0.918817 0.662035
vt 0.952041 0.662035
vt 0.437235 0.662035
vt 0.470460 0.662035
vt 0.470460 0.477242
vt 0.437235 0.477242
vt 0.918817 0.477242
vt 0.952041 0.477242
vt 0.661414 0.615837
vt 0.661414 0.569638
vt 0.694638 0.569638
vt 0.694638 0.615837
vt 0.727863 0.569638
vt 0.727863 0.615837
vt 0.661414 0.523440
vt 0.694638 0.523440
vt 0.727863 0.523440
vt 0.661414 0.662035
vt 0.694638 0.662035
vt 0.727863 0.662035
vt 0.727863 0.477242
vt 0.694638 0.477242
vt 0.661414 0.477242
vt 0.654208 0.719631
vt 0.692456 0.753536
vt 0.679523 0.762683
vt 0.646167 0.733279
vt 0.604068 0.701920
vt 0.601392 0.717533
vt 0.550892 0.701920
vt 0.553928 0.717466
vt 0.503535 0.721149
vt 0.512683 0.734081
vt 0.810944 0.961685
vt 0.763587 0.942456
vt 0.772734 0.929523
vt 0.813980 0.946139
vt 0.864120 0.961685
vt 0.861443 0.946072
vt 0.914260 0.943974
vt 0.906219 0.930326
vt 0.952507 0.910070
vt 0.939575 0.900922
vt 0.920121 0.721149
vt 0.954026 0.759397
vt 0.940378 0.767438
vt 0.910974 0.734081
vt 0.971737 0.809537
vt 0.956124 0.812213
vt 0.971737 0.862713
vt 0.956190 0.859677
vt 0.729683 0.904208
vt 0.743330 0.896167
vt 0.711971 0.854068
vt 0.727584 0.851392
vt 0.711971 0.800892
vt 0.727518 0.803928
vt 0.731201 0.753535
vt 0.744133 0.762683
vt 0.769448 0.719631
vt 0.777489 0.733279
vt 0.819588 0.701920
vt 0.822265 0.717533
vt 0.872764 0.701920
vt 0.869729 0.717466
vt 0.509397 0.943974
vt 0.471149 0.910070
vt 0.484081 0.900922
vt 0.517438 0.930326
vt 0.559537 0.961685
vt 0.562213 0.946072
vt 0.612713 0.961685
vt 0.609677 0.946139
vt 0.660070 0.942456
vt 0.650922 0.929524
vt 0.711685 0.800892
vt 0.696138 0.803928
vt 0.711685 0.854068
vt 0.696072 0.851392
vt 0.693974 0.904208
vt 0.680326 0.896167
vt 0.451920 0.862713
vt 0.467466 0.859677
vt 0.451920 0.809537
vt 0.467533 0.812213
vt 0.469631 0.759397
vt 0.483279 0.767438
vn -0.9350 -0.3547 0.0000
vn -1.0000 0.0000 -0.0000
vn -0.9350 0.3547 -0.0000
vn -0.7071 -0.7071 0.0000
vn -0.7071 0.7071 0.0000
vn 0.9350 -0.3547 -0.0000
vn 1.0000 -0.0000 0.0000
vn 0.9350 0.3547 0.0000
vn 0.7071 -0.7071 -0.0000
vn 0.7071 0.7071 -0.0000
vn -0.3547 -0.9350 -0.0000
vn -0.0000 -1.0000 -0.0000
vn 0.3547 -0.9350 0.0000
vn 0.3547 0.9350 0.0000
vn -0.0000 1.0000 0.0000
vn -0.3547 0.9350 0.0000
vn 0.9357 0.3528 -0.0000
vn 0.9357 -0.3528 0.0000
vn -0.9357 0.3528 0.0000
vn -0.9357 -0.3528 -0.0000
vn 0.3528 0.9357 -0.0000
vn -0.3528 0.9357 0.0000
vn -0.3528 -0.9357 0.0000
vn 0.3528 -0.9357 0.0000
vn -0.0000 0.0000 1.0000
vn -0.0000 0.0000 -1.0000
usemtl None
s 1
f 45/1/1 46/2/2 49/3/2 48/4/1
f 46/2/2 47/5/3 50/6/3 49/3/2
f 48/4/1 49/3/2 52/7/2 51/8/1
f 49/3/2 50/6/3 53/9/3 52/7/2
f 1/10/4 12/11/1 45/1/1 11/12/4
f 12/11/1 13/13/2 46/2/2 45/1/1
f 13/13/2 14/14/3 47/5/3 46/2/2
f 14/14/3 2/15/5 15/16/5 47/5/3
f 47/5/3 15/16/5 16/17/5 50/6/3
f 50/6/3 16/17/5 17/18/5 53/9/3
f 53/9/3 17/18/5 4/19/5 18/20/3
f 52/7/2 53/9/3 18/20/3 19/21/2
f 51/8/1 52/7/2 19/21/2 20/22/1
f 9/23/4 51/8/1 20/22/1 3/24/4
f 10/25/4 48/4/1 51/8/1 9/23/4
f 11/12/4 45/1/1 48/4/1 10/25/4
f 54/26/6 55/27/7 58/28/7 57/29/6
f 55/27/7 56/30/8 59/31/8 58/28/7
f 57/29/6 58/28/7 61/32/7 60/33/6
f 58/28/7 59/31/8 62/34/8 61/32/7
f 7/35/9 29/36/6 54/26/6 32/37/9
f 29/36/6 28/38/7 55/27/7 54/26/6
f 28/38/7 27/39/8 56/30/8 55/27/7
f 27/39/8 8/40/10 33/41/10 56/30/8
f 56/30/8 33/41/10 34/42/10 59/31/8
f 59/31/8 34/42/10 35/43/10 62/34/8
f 62/34/8 35/43/10 6/44/10 36/45/8
f 61/32/7 62/34/8 36/45/8 37/46/7
f 60/33/6 61/32/7 37/46/7 38/47/6
f 30/48/9 60/33/6 38/47/6 5/49/9
f 31/50/9 57/29/6 60/33/6 30/48/9
f 32/37/9 54/26/6 57/29/6 31/50/9
f 63/51/11 64/52/12 67/53/12 66/54/11
f 64/55/12 65/56/13 68/57/13 67/58/12
f 66/54/11 67/53/12 70/59/12 69/60/11
f 67/58/12 68/57/13 71/61/13 70/62/12
f 3/24/4 23/63/11 63/51/11 9/23/4
f 23/63/11 22/64/12 64/52/12 63/51/11
f 22/65/12 21/66/13 65/56/13 64/55/12
f 21/66/13 7/35/9 32/37/9 65/56/13
f 65/56/13 32/37/9 31/50/9 68/57/13
f 68/57/13 31/50/9 30/48/9 71/61/13
f 71/61/13 30/48/9 5/49/9 41/67/13
f 70/62/12 71/61/13 41/67/13 40/68/12
f 69/60/11 70/59/12 40/69/12 39/70/11
f 11/12/4 69/60/11 39/70/11 1/10/4
f 10/25/4 66/54/11 69/60/11 11/12/4
f 9/23/4 63/51/11 66/54/11 10/25/4
f 72/71/14 73/72/15 76/73/15 75/74/14
f 73/72/15 74/75/16 77/76/16 76/73/15
f 75/74/14 76/73/15 79/77/15 78/78/14
f 76/73/15 77/76/16 80/79/16 79/77/15
f 8/40/10 26/80/14 72/71/14 33/41/10
f 26/80/14 25/81/15 73/72/15 72/71/14
f 25/81/15 24/82/16 74/75/16 73/72/15
f 24/82/16 4/19/5 17/18/5 74/75/16
f 74/75/16 17/18/5 16/17/5 77/76/16
f 77/76/16 16/17/5 15/16/5 80/79/16
f 80/79/16 15/16/5 2/15/5 44/83/16
f 79/77/15 80/79/16 44/83/16 43/84/15
f 78/78/14 79/77/15 43/84/15 42/85/14
f 35/43/10 78/78/14 42/85/14 6/44/10
f 34/42/10 75/74/14 78/78/14 35/43/10
f 33/41/10 72/71/14 75/74/14 34/42/10
f 125/86/17 128/87/17 129/88/7 126/89/7
f 126/89/7 129/88/7 130/90/18 127/91/18
f 128/87/17 131/92/17 132/93/7 129/88/7
f 129/88/7 132/93/7 133/94/18 130/90/18
f 81/95/10 91/96/10 125/86/17 92/97/17
f 92/97/17 125/86/17 126/89/7 93/98/7
f 93/98/7 126/89/7 127/91/18 94/99/18
f 94/99/18 127/91/18 95/100/9 82/101/9
f 127/91/18 130/90/18 96/102/9 95/100/9
f 130/90/18 133/94/18 97/103/9 96/102/9
f 133/94/18 98/104/18 84/105/9 97/103/9
f 132/93/7 99/106/7 98/104/18 133/94/18
f 131/92/17 100/107/17 99/106/7 132/93/7
f 89/108/10 83/109/10 100/107/17 131/92/17
f 90/110/10 89/108/10 131/92/17 128/87/17
f 91/96/10 90/110/10 128/87/17 125/86/17
f 134/111/19 137/112/19 138/113/2 135/114/2
f 135/114/2 138/113/2 139/115/20 136/116/20
f 137/112/19 140/117/19 141/118/2 138/113/2
f 138/113/2 141/118/2 142/119/20 139/115/20
f 87/120/5 112/121/5 134/111/19 109/122/19
f 109/122/19 134/111/19 135/114/2 108/123/2
f 108/123/2 135/114/2 136/116/20 107/124/20
f 107/124/20 136/116/20 113/125/4 88/126/4
f 136/116/20 139/115/20 114/127/4 113/125/4
f 139/115/20 142/119/20 115/128/4 114/127/4
f 142/119/20 116/129/20 86/130/4 115/128/4
f 141/118/2 117/131/2 116/129/20 142/119/20
f 140/117/19 118/132/19 117/131/2 141/118/2
f 110/133/5 85/134/5 118/132/19 140/117/19
f 111/135/5 110/133/5 140/117/19 137/112/19
f 112/121/5 111/135/5 137/112/19 134/111/19
f 143/136/21 146/137/21 147/138/15 144/139/15
f 144/140/15 147/141/15 148/142/22 145/143/22
f 146/137/21 149/144/21 150/145/15 147/138/15
f 147/141/15 150/146/15 151/147/22 148/142/22
f 83/109/10 89/108/10 143/136/21 103/148/21
f 103/148/21 143/136/21 144/139/15 102/149/15
f 102/150/15 144/140/15 145/143/22 101/151/22
f 101/151/22 145/143/22 112/121/5 87/120/5
f 145/143/22 148/142/22 111/135/5 112/121/5
f 148/142/22 151/147/22 110/133/5 111/135/5
f 151/147/22 121/152/22 85/134/5 110/133/5
f 150/146/15 120/153/15 121/152/22 151/147/22
f 149/144/21 119/154/21 120/155/15 150/145/15
f 91/96/10 81/95/10 119/154/21 149/144/21
f 90/110/10 91/96/10 149/144/21 146/137/21
f 89/108/10 90/110/10 146/137/21 143/136/21
f 152/156/23 155/157/23 156/158/12 153/159/12
f 153/159/12 156/158/12 157/160/24 154/161/24
f 155/157/23 158/162/23 159/163/12 156/158/12
f 156/158/12 159/163/12 160/164/24 157/160/24
f 88/126/4 113/125/4 152/156/23 106/165/23
f 106/165/23 152/156/23 153/159/12 105/166/12
f 105/166/12 153/159/12 154/161/24 104/167/24
f 104/167/24 154/161/24 97/103/9 84/105/9
f 154/161/24 157/160/24 96/102/9 97/103/9
f 157/160/24 160/164/24 95/100/9 96/102/9
f 160/164/24 124/168/24 82/101/9 95/100/9
f 159/163/12 123/169/12 124/168/24 160/164/24
f 158/162/23 122/170/23 123/169/12 159/163/12
f 115/128/4 86/130/4 122/170/23 158/162/23
f 114/127/4 115/128/4 158/162/23 155/157/23
f 113/125/4 114/127/4 155/157/23 152/156/23
f 12/171/25 1/172/25 81/173/25 92/174/25
f 13/175/25 12/171/25 92/174/25 93/176/25
f 14/177/25 13/175/25 93/176/25 94/178/25
f 2/179/25 14/177/25 94/178/25 82/180/25
f 18/181/26 4/182/26 84/183/26 98/184/26
f 19/185/26 18/181/26 98/184/26 99/186/26
f 20/187/26 19/185/26 99/186/26 100/188/26
f 3/189/26 20/187/26 100/188/26 83/190/26
f 7/191/26 21/192/26 101/193/26 87/194/26
f 21/192/26 22/195/26 102/196/26 101/193/26
f 22/195/26 23/197/26 103/198/26 102/196/26
f 23/197/26 3/189/26 83/190/26 103/198/26
f 4/182/26 24/199/26 104/200/26 84/183/26
f 24/199/26 25/201/26 105/202/26 104/200/26
f 25/201/26 26/203/26 106/204/26 105/202/26
f 26/203/26 8/205/26 88/206/26 106/204/26
f 8/205/26 27/207/26 107/208/26 88/206/26
f 27/207/26 28/209/26 108/210/26 107/208/26
f 28/209/26 29/211/26 109/212/26 108/210/26
f 29/211/26 7/191/26 87/194/26 109/212/26
f 36/213/25 6/214/25 86/215/25 116/216/25
f 37/217/25 36/213/25 116/216/25 117/218/25
f 38/219/25 37/217/25 117/218/25 118/220/25
f 5/221/25 38/219/25 118/220/25 85/222/25
f 1/172/25 39/223/25 119/224/25 81/173/25
f 39/223/25 40/225/25 120/226/25 119/224/25
f 40/225/25 41/227/25 121/228/25 120/226/25
f 41/227/25 5/221/25 85/222/25 121/228/25
f 6/214/25 42/229/25 122/230/25 86/215/25
f 42/229/25 43/231/25 123/232/25 122/230/25
f 43/231/25 44/233/25 124/234/25 123/232/25
f 44/233/25 2/179/25 82/180/25 124/234/25
