# Blender v2.81 (sub 16) OBJ File: 'PipesV1.blend'
# www.blender.org
mtllib PipeGrate.mtl
o Gate_Cube.007
v -0.210092 -0.210092 0.032768
v -0.210092 0.210092 0.032768
v 0.210092 -0.210092 0.032768
v 0.210092 0.210092 0.032768
v -0.268041 0.116151 0.032768
v -0.287785 -0.000000 0.032768
v -0.268041 -0.116151 0.032768
v 0.116151 -0.268041 0.032768
v -0.000000 -0.287785 0.032768
v -0.116151 -0.268041 0.032768
v -0.116151 0.268041 0.032768
v -0.000000 0.287785 0.032768
v 0.116151 0.268041 0.032768
v 0.268041 0.116151 0.032768
v 0.287785 -0.000000 0.032768
v 0.268041 -0.116151 0.032768
v 0.206714 -0.206278 0.025756
v 0.157149 -0.206278 0.025756
v 0.157149 -0.206278 -0.025756
v 0.206714 -0.206278 -0.025756
v 0.206714 0.206278 0.025756
v 0.157149 0.206278 0.025756
v 0.157149 0.206278 -0.025756
v 0.206714 0.206278 -0.025756
v -0.157149 -0.206278 0.025756
v -0.206714 -0.206278 0.025756
v -0.206714 -0.206278 -0.025756
v -0.157149 -0.206278 -0.025756
v -0.157149 0.206278 0.025756
v -0.206714 0.206278 0.025756
v -0.206714 0.206278 -0.025756
v -0.157149 0.206278 -0.025756
v -0.072547 -0.259001 0.025756
v -0.124060 -0.259001 0.025756
v -0.124060 -0.259001 -0.025756
v -0.072547 -0.259001 -0.025756
v -0.072547 0.259001 0.025756
v -0.124060 0.259001 0.025756
v -0.124060 0.259001 -0.025756
v -0.072547 0.259001 -0.025756
v 0.025756 -0.280439 0.025756
v -0.025756 -0.280439 0.025756
v -0.025756 -0.280439 -0.025756
v 0.025756 -0.280439 -0.025756
v 0.025756 0.280439 0.025756
v -0.025756 0.280439 0.025756
v -0.025756 0.280439 -0.025756
v 0.025756 0.280439 -0.025756
v 0.124060 -0.259001 0.025756
v 0.072547 -0.259001 0.025756
v 0.072547 -0.259001 -0.025756
v 0.124060 -0.259001 -0.025756
v 0.124060 0.259001 0.025756
v 0.072547 0.259001 0.025756
v 0.072547 0.259001 -0.025756
v 0.124060 0.259001 -0.025756
v -0.189083 -0.189083 0.032768
v -0.189083 0.189083 0.032768
v 0.189083 -0.189083 0.032768
v 0.189083 0.189083 0.032768
v -0.241237 0.104536 0.032768
v -0.259007 -0.000000 0.032768
v -0.241237 -0.104536 0.032768
v 0.104536 -0.241237 0.032768
v -0.000000 -0.259007 0.032768
v -0.104536 -0.241237 0.032768
v -0.104536 0.241237 0.032768
v 0.000000 0.259007 0.032768
v 0.104536 0.241237 0.032768
v 0.241237 0.104536 0.032768
v 0.259007 -0.000000 0.032768
v 0.241237 -0.104536 0.032768
v -0.210092 -0.210092 -0.032768
v -0.210092 0.210092 -0.032768
v 0.210092 -0.210092 -0.032768
v 0.210092 0.210092 -0.032768
v -0.268041 0.116151 -0.032768
v -0.287785 -0.000000 -0.032768
v -0.268041 -0.116151 -0.032768
v 0.116151 -0.268041 -0.032768
v -0.000000 -0.287785 -0.032768
v -0.116151 -0.268041 -0.032768
v -0.116151 0.268041 -0.032768
v -0.000000 0.287785 -0.032768
v 0.116151 0.268041 -0.032768
v 0.268041 0.116151 -0.032768
v 0.287785 -0.000000 -0.032768
v 0.268041 -0.116151 -0.032768
v -0.189083 -0.189083 -0.032768
v -0.189083 0.189083 -0.032768
v 0.189083 -0.189083 -0.032768
v 0.189083 0.189083 -0.032768
v -0.241237 0.104536 -0.032768
v -0.259007 -0.000000 -0.032768
v -0.241237 -0.104536 -0.032768
v 0.104536 -0.241237 -0.032768
v -0.000000 -0.259007 -0.032768
v -0.104536 -0.241237 -0.032768
v -0.104536 0.241237 -0.032768
v 0.000000 0.259007 -0.032768
v 0.104536 0.241237 -0.032768
v 0.241237 0.104536 -0.032768
v 0.259007 -0.000000 -0.032768
v 0.241237 -0.104536 -0.032768
vt 0.853945 0.486731
vt 0.882368 0.486731
vt 0.882368 0.516271
vt 0.853945 0.516271
vt 0.853945 0.752852
vt 0.882368 0.752852
vt 0.882368 0.782392
vt 0.853945 0.782392
vt 0.853945 0.250151
vt 0.882368 0.250151
vt 0.911908 0.516271
vt 0.911908 0.752852
vt 0.824405 0.516271
vt 0.824405 0.752852
vt 0.941749 0.486731
vt 0.970172 0.486731
vt 0.970172 0.516271
vt 0.941749 0.516271
vt 0.941749 0.752852
vt 0.970172 0.752852
vt 0.970172 0.782392
vt 0.941749 0.782392
vt 0.941749 0.250151
vt 0.970172 0.250151
vt 0.999712 0.516271
vt 0.999712 0.752852
vt 0.912209 0.516271
vt 0.912209 0.752852
vt 0.676101 0.547199
vt 0.705641 0.547199
vt 0.705641 0.576740
vt 0.676101 0.576740
vt 0.676101 0.873788
vt 0.705641 0.873788
vt 0.705641 0.903328
vt 0.676101 0.903328
vt 0.676101 0.250151
vt 0.705641 0.250151
vt 0.735181 0.576740
vt 0.735181 0.873788
vt 0.646561 0.576740
vt 0.646561 0.873788
vt 0.587179 0.571786
vt 0.616719 0.571786
vt 0.616719 0.601326
vt 0.587179 0.601326
vt 0.587179 0.922961
vt 0.616719 0.922961
vt 0.616719 0.952501
vt 0.587179 0.952501
vt 0.587179 0.250151
vt 0.616719 0.250151
vt 0.646259 0.601326
vt 0.646259 0.922961
vt 0.557639 0.601326
vt 0.557639 0.922961
vt 0.765023 0.547199
vt 0.794563 0.547199
vt 0.794563 0.576739
vt 0.765023 0.576739
vt 0.765023 0.873787
vt 0.794563 0.873787
vt 0.794563 0.903327
vt 0.765023 0.903327
vt 0.765023 0.250151
vt 0.794563 0.250151
vt 0.824103 0.576739
vt 0.824103 0.873787
vt 0.735483 0.576739
vt 0.735483 0.873787
vt 0.297221 0.001312
vt 0.304093 0.067464
vt 0.287031 0.068004
vt 0.282212 0.005291
vt 0.305010 0.331725
vt 0.302975 0.266167
vt 0.287255 0.266218
vt 0.288236 0.331669
vt 0.301237 0.941908
vt 0.294541 0.999849
vt 0.281424 0.996207
vt 0.286331 0.941238
vt 0.307337 0.395462
vt 0.289255 0.395450
vt 0.304675 0.884235
vt 0.288173 0.883995
vt 0.304395 0.584528
vt 0.306423 0.645401
vt 0.289156 0.645335
vt 0.288376 0.584422
vt 0.303037 0.825977
vt 0.287725 0.825809
vt 0.302655 0.521915
vt 0.287641 0.521913
vt 0.301575 0.766148
vt 0.287233 0.766098
vt 0.304727 0.458547
vt 0.288321 0.458617
vt 0.303741 0.705636
vt 0.288073 0.705654
vt 0.304915 0.199807
vt 0.307337 0.133769
vt 0.288494 0.133901
vt 0.287744 0.199951
vt 0.231154 0.002148
vt 0.227765 0.070694
vt 0.244960 0.070309
vt 0.246865 0.005608
vt 0.230811 0.334061
vt 0.231053 0.267749
vt 0.246944 0.267558
vt 0.247939 0.333331
vt 0.235467 0.940762
vt 0.238211 0.997788
vt 0.251271 0.995035
vt 0.250062 0.941120
vt 0.230094 0.397028
vt 0.248805 0.396854
vt 0.234148 0.884879
vt 0.251083 0.884892
vt 0.233528 0.586531
vt 0.232653 0.646664
vt 0.250522 0.646555
vt 0.249888 0.585887
vt 0.235304 0.827612
vt 0.250913 0.827074
vt 0.233961 0.523196
vt 0.249142 0.523066
vt 0.235956 0.767156
vt 0.250451 0.767085
vt 0.232156 0.459214
vt 0.248935 0.459600
vt 0.234435 0.706056
vt 0.250456 0.706476
vt 0.228951 0.200796
vt 0.226641 0.135839
vt 0.246097 0.135644
vt 0.246499 0.201138
vt 0.193159 0.268819
vt 0.190555 0.202514
vt 0.193038 0.334703
vt 0.192812 0.398262
vt 0.195463 0.460763
vt 0.197761 0.524106
vt 0.197450 0.587032
vt 0.197046 0.647731
vt 0.199395 0.707424
vt 0.201401 0.767911
vt 0.200911 0.827961
vt 0.200386 0.885801
vt 0.202893 0.942357
vt 0.206318 0.999693
vt 0.188130 0.070455
vt 0.190774 0.000151
vt 0.187651 0.137090
vn 0.0000 -1.0000 0.0000
vn 0.0000 1.0000 0.0000
vn 0.0000 0.0000 1.0000
vn -1.0000 0.0000 0.0000
vn 0.0000 0.0000 -1.0000
vn 1.0000 0.0000 0.0000
vn -0.9357 0.3528 0.0000
vn -0.9357 -0.3528 0.0000
vn -0.7071 -0.7071 0.0000
vn -0.3528 -0.9357 0.0000
vn 0.3528 -0.9357 0.0000
vn 0.7071 -0.7071 0.0000
vn 0.9357 -0.3528 0.0000
vn 0.9357 0.3528 0.0000
vn 0.7071 0.7071 0.0000
vn 0.3528 0.9357 0.0000
vn -0.3528 0.9357 0.0000
vn -0.7071 0.7071 0.0000
usemtl None
s 1
f 17/1/1 18/2/1 19/3/1 20/4/1
f 24/5/2 23/6/2 22/7/2 21/8/2
f 18/2/3 17/1/3 21/9/3 22/10/3
f 19/3/4 18/11/4 22/12/4 23/6/4
f 20/4/5 19/3/5 23/6/5 24/5/5
f 17/13/6 20/4/6 24/5/6 21/14/6
f 25/15/1 26/16/1 27/17/1 28/18/1
f 32/19/2 31/20/2 30/21/2 29/22/2
f 26/16/3 25/15/3 29/23/3 30/24/3
f 27/17/4 26/25/4 30/26/4 31/20/4
f 28/18/5 27/17/5 31/20/5 32/19/5
f 25/27/6 28/18/6 32/19/6 29/28/6
f 33/29/1 34/30/1 35/31/1 36/32/1
f 40/33/2 39/34/2 38/35/2 37/36/2
f 34/30/3 33/29/3 37/37/3 38/38/3
f 35/31/4 34/39/4 38/40/4 39/34/4
f 36/32/5 35/31/5 39/34/5 40/33/5
f 33/41/6 36/32/6 40/33/6 37/42/6
f 41/43/1 42/44/1 43/45/1 44/46/1
f 48/47/2 47/48/2 46/49/2 45/50/2
f 42/44/3 41/43/3 45/51/3 46/52/3
f 43/45/4 42/53/4 46/54/4 47/48/4
f 44/46/5 43/45/5 47/48/5 48/47/5
f 41/55/6 44/46/6 48/47/6 45/56/6
f 49/57/1 50/58/1 51/59/1 52/60/1
f 56/61/2 55/62/2 54/63/2 53/64/2
f 50/58/3 49/57/3 53/65/3 54/66/3
f 51/59/4 50/67/4 54/68/4 55/62/4
f 52/60/5 51/59/5 55/62/5 56/61/5
f 49/69/6 52/60/6 56/61/6 53/70/6
f 12/71/3 11/72/3 67/73/3 68/74/3
f 7/75/5 6/76/5 62/77/5 63/78/5
f 13/79/3 12/80/3 68/81/3 69/82/3
f 1/83/5 7/75/5 63/78/5 57/84/5
f 4/85/3 13/79/3 69/82/3 60/86/3
f 8/87/3 3/88/3 59/89/3 64/90/3
f 14/91/3 4/85/3 60/86/3 70/92/3
f 9/93/3 8/87/3 64/90/3 65/94/3
f 15/95/3 14/91/3 70/92/3 71/96/3
f 10/97/3 9/93/3 65/94/3 66/98/3
f 16/99/3 15/95/3 71/96/3 72/100/3
f 1/83/3 10/97/3 66/98/3 57/84/3
f 5/101/5 2/102/5 58/103/5 61/104/5
f 3/88/3 16/99/3 72/100/3 59/89/3
f 11/72/3 2/102/3 58/103/3 67/73/3
f 6/76/5 5/101/5 61/104/5 62/77/5
f 84/105/3 83/106/3 99/107/3 100/108/3
f 79/109/5 78/110/5 94/111/5 95/112/5
f 85/113/3 84/114/3 100/115/3 101/116/3
f 73/117/5 79/109/5 95/112/5 89/118/5
f 76/119/3 85/113/3 101/116/3 92/120/3
f 80/121/3 75/122/3 91/123/3 96/124/3
f 86/125/3 76/119/3 92/120/3 102/126/3
f 81/127/3 80/121/3 96/124/3 97/128/3
f 87/129/3 86/125/3 102/126/3 103/130/3
f 82/131/3 81/127/3 97/128/3 98/132/3
f 88/133/3 87/129/3 103/130/3 104/134/3
f 73/117/3 82/131/3 98/132/3 89/118/3
f 77/135/5 74/136/5 90/137/5 93/138/5
f 75/122/3 88/133/3 104/134/3 91/123/3
f 83/106/3 74/136/3 90/137/3 99/107/3
f 78/110/5 77/135/5 93/138/5 94/111/5
f 77/135/7 78/110/4 6/139/4 5/140/7
f 78/110/4 79/109/8 7/141/8 6/139/4
f 79/109/8 73/117/9 1/142/9 7/141/8
f 73/117/9 82/131/10 10/143/10 1/142/9
f 82/131/10 81/127/1 9/144/1 10/143/10
f 81/127/1 80/121/11 8/145/11 9/144/1
f 80/121/11 75/122/12 3/146/12 8/145/11
f 75/122/12 88/133/13 16/147/13 3/146/12
f 88/133/13 87/129/6 15/148/6 16/147/13
f 87/129/6 86/125/14 14/149/14 15/148/6
f 86/125/14 76/119/15 4/150/15 14/149/14
f 76/119/15 85/113/16 13/151/16 4/150/15
f 85/113/16 84/114/2 12/152/2 13/151/16
f 84/105/2 83/106/17 11/153/17 12/154/2
f 83/106/17 74/136/18 2/155/18 11/153/17
f 74/136/18 77/135/7 5/140/7 2/155/18
f 93/138/7 94/111/4 62/77/4 61/104/7
f 94/111/4 95/112/8 63/78/8 62/77/4
f 95/112/8 89/118/9 57/84/9 63/78/8
f 89/118/9 98/132/10 66/98/10 57/84/9
f 98/132/10 97/128/1 65/94/1 66/98/10
f 97/128/1 96/124/11 64/90/11 65/94/1
f 96/124/11 91/123/12 59/89/12 64/90/11
f 91/123/12 104/134/13 72/100/13 59/89/12
f 104/134/13 103/130/6 71/96/6 72/100/13
f 103/130/6 102/126/14 70/92/14 71/96/6
f 102/126/14 92/120/15 60/86/15 70/92/14
f 92/120/15 101/116/16 69/82/16 60/86/15
f 101/116/16 100/115/2 68/81/2 69/82/16
f 100/108/2 99/107/17 67/73/17 68/74/2
f 99/107/17 90/137/18 58/103/18 67/73/17
f 90/137/18 93/138/7 61/104/7 58/103/18
