# Blender v2.81 (sub 16) OBJ File: 'Assets.blend'
# www.blender.org
mtllib FixedGauge.mtl
o Gauge_Cylinder.004
v 0.000014 0.047402 -0.026006
v 0.073246 0.415562 -0.026006
v 0.135329 0.374079 -0.026006
v 0.176811 0.311997 -0.026006
v 0.191378 0.238765 -0.026006
v 0.176811 0.165533 -0.026006
v 0.135329 0.103451 -0.026006
v 0.073246 0.061968 -0.026006
v -0.073217 0.415562 -0.026006
v -0.135300 0.374079 -0.026006
v -0.176782 0.311997 -0.026006
v -0.191349 0.238765 -0.026006
v -0.176782 0.165533 -0.026006
v -0.135300 0.103451 -0.026006
v -0.073217 0.061968 -0.026006
v 0.000014 0.430128 -0.026006
v -0.073217 0.061968 0.045994
v -0.135300 0.103451 0.045994
v -0.176782 0.165533 0.045994
v -0.191349 0.238765 0.045994
v -0.176782 0.311997 0.045994
v -0.135300 0.374079 0.045994
v -0.073217 0.415562 0.045994
v 0.073246 0.061968 0.045994
v 0.135329 0.103451 0.045994
v 0.176811 0.165533 0.045994
v 0.191378 0.238765 0.045994
v 0.176811 0.311997 0.045994
v 0.135329 0.374079 0.045994
v 0.073246 0.415562 0.045994
v 0.000014 0.047402 0.045994
v 0.000015 0.430128 0.045994
v -0.053619 0.109283 0.006559
v -0.099087 0.139663 0.006559
v -0.129468 0.185132 0.006559
v -0.140136 0.238765 0.006559
v -0.129468 0.292398 0.006558
v -0.099087 0.337867 0.006559
v -0.053619 0.368247 0.006558
v 0.053648 0.109283 0.006559
v 0.099116 0.139663 0.006559
v 0.129497 0.185132 0.006559
v 0.140165 0.238765 0.006559
v 0.129497 0.292398 0.006558
v 0.099116 0.337867 0.006559
v 0.053648 0.368247 0.006559
v 0.000015 0.098614 0.006559
v 0.000014 0.378916 0.006558
v 0.000014 0.378916 0.041793
v 0.000014 0.098614 0.041793
v 0.053648 0.368247 0.041793
v 0.099116 0.337867 0.041793
v 0.129497 0.292398 0.041793
v 0.140165 0.238765 0.041793
v 0.129497 0.185132 0.041793
v 0.099116 0.139663 0.041793
v 0.053648 0.109283 0.041793
v -0.053619 0.368247 0.041793
v -0.099087 0.337867 0.041793
v -0.129468 0.292398 0.041793
v -0.140136 0.238765 0.041793
v -0.129468 0.185132 0.041793
v -0.099087 0.139663 0.041793
v -0.053619 0.109283 0.041793
v 0.000015 0.238765 0.002357
v 0.000014 0.238765 -0.026006
v -0.000000 -0.024842 -0.008206
v -0.000000 0.024842 -0.008206
v 0.013031 -0.024842 -0.002808
v 0.013031 0.024842 -0.002808
v 0.018429 -0.024842 0.010224
v 0.018429 0.024842 0.010224
v 0.013031 -0.024842 0.023255
v 0.013031 0.024842 0.023255
v -0.000000 -0.024842 0.028653
v -0.000000 0.024842 0.028653
v -0.013031 -0.024842 0.023255
v -0.013031 0.024842 0.023255
v -0.018429 -0.024842 0.010224
v -0.018429 0.024842 0.010224
v -0.013031 -0.024842 -0.002808
v -0.013031 0.024842 -0.002808
v -0.000000 0.024842 -0.014547
v 0.017515 0.024842 -0.007292
v 0.024770 0.024842 0.010224
v 0.017515 0.024842 0.027739
v -0.000000 0.024842 0.034994
v -0.017515 0.024842 0.027739
v -0.024770 0.024842 0.010224
v -0.017515 0.024842 -0.007292
v -0.000000 0.061647 -0.014547
v 0.017515 0.061647 -0.007292
v 0.024770 0.061647 0.010224
v 0.017515 0.061647 0.027739
v -0.000000 0.061647 0.034994
v -0.017515 0.061647 0.027739
v -0.024770 0.061647 0.010224
v -0.017515 0.061647 -0.007292
v -0.000000 -0.024842 0.010224
v 0.021167 0.043244 -0.010944
v 0.029935 0.043244 0.010224
v -0.029935 0.043244 0.010224
v -0.021167 0.043244 -0.010944
v -0.000000 0.043244 0.040159
v -0.021167 0.043244 0.031391
v 0.021167 0.043244 0.031391
v -0.000000 0.043244 -0.019711
vt 0.245516 0.818071
vt 0.216870 0.869329
vt 0.170890 0.840374
vt 0.197234 0.795487
vt 0.243377 0.437146
vt 0.264571 0.486943
vt 0.218416 0.503999
vt 0.199658 0.460035
vt 0.052495 0.243220
vt 0.099068 0.272284
vt 0.070782 0.314818
vt 0.024469 0.288130
vt 0.267580 0.764168
vt 0.217747 0.747347
vt 0.144388 0.306098
vt 0.110294 0.345041
vt 0.283914 0.706978
vt 0.230716 0.696745
vt 0.279071 0.538975
vt 0.230866 0.550082
vt 0.139084 0.961992
vt 0.092367 0.999946
vt 0.055768 0.954897
vt 0.100899 0.920237
vt 0.183196 0.347014
vt 0.145882 0.379460
vt 0.289468 0.648064
vt 0.237378 0.646258
vt 0.287218 0.592356
vt 0.236863 0.597278
vt 0.181705 0.917748
vt 0.139385 0.882792
vt 0.216054 0.390415
vt 0.175365 0.418655
vt 0.183845 0.515242
vt 0.166311 0.475928
vt 0.116972 0.404419
vt 0.084372 0.374708
vt 0.201436 0.599196
vt 0.194834 0.556578
vt 0.190659 0.688453
vt 0.199026 0.643618
vt 0.050546 0.345997
vt 0.012766 0.326078
vt 0.143714 0.439071
vt 0.161762 0.777003
vt 0.179320 0.733440
vt 0.075019 0.889452
vt 0.107658 0.854654
vt 0.038658 0.918240
vt 0.139076 0.818696
vt 0.170023 0.561762
vt 0.158607 0.524474
vt 0.034737 0.369082
vt 0.000054 0.348289
vt 0.055142 0.866985
vt 0.086589 0.835738
vt 0.067033 0.394537
vt 0.113992 0.801598
vt 0.096720 0.423141
vt 0.135774 0.763936
vt 0.122463 0.453933
vt 0.152133 0.723841
vt 0.142632 0.487779
vt 0.163427 0.681938
vt 0.171670 0.639974
vt 0.174533 0.599773
vt 0.020157 0.895699
vt 0.899397 0.545915
vt 0.937450 0.637782
vt 0.687500 0.687500
vt 0.937450 0.737218
vt 0.737218 0.437550
vt 0.829085 0.475603
vt 0.637782 0.437550
vt 0.737218 0.937450
vt 0.637782 0.937450
vt 0.437550 0.637782
vt 0.475603 0.545915
vt 0.475603 0.829086
vt 0.437550 0.737218
vt 0.545915 0.899398
vt 0.829085 0.899397
vt 0.899398 0.829085
vt 0.545914 0.475603
vt 0.251375 0.237027
vt 0.206701 0.268932
vt 0.148839 0.140683
vt 0.017238 0.090913
vt 0.046302 0.044340
vt 0.153218 0.281313
vt 0.008209 0.145062
vt 0.020590 0.198546
vt 0.245182 0.038147
vt 0.277088 0.082821
vt 0.198610 0.009083
vt 0.289468 0.136304
vt 0.144460 0.000054
vt 0.280439 0.190454
vt 0.090976 0.012434
vt 0.679711 0.351440
vt 0.649364 0.180976
vt 0.701857 0.176100
vt 0.719609 0.345014
vt 0.753504 0.175743
vt 0.759054 0.341563
vt 0.802867 0.180779
vt 0.797885 0.340955
vt 0.847114 0.195532
vt 0.836116 0.342857
vt 0.514637 0.406754
vt 0.450260 0.250826
vt 0.494436 0.223051
vt 0.558904 0.388478
vt 0.544826 0.203768
vt 0.599265 0.373296
vt 0.430479 0.236700
vt 0.485828 0.202791
vt 0.596791 0.190150
vt 0.639548 0.360882
vt 0.814704 0.388055
vt 0.756984 0.104843
vt 0.698325 0.104154
vt 0.695945 0.046800
vt 0.759159 0.047115
vt 0.593785 0.169931
vt 0.648051 0.160811
vt 0.702252 0.156214
vt 0.755864 0.156543
vt 0.808033 0.163518
vt 0.539855 0.183599
vt 0.858960 0.182975
vt 0.580837 0.118122
vt 0.522178 0.132433
vt 0.506295 0.076773
vt 0.569045 0.061406
vt 0.462374 0.151619
vt 0.395460 0.177136
vt 0.383916 0.114159
vt 0.444863 0.096310
vt 0.816521 0.111513
vt 0.822610 0.051715
vt 0.639581 0.108659
vt 0.632492 0.051433
vt 0.884718 0.125813
vt 0.888141 0.058454
vt 0.859902 0.409467
vt 0.831523 0.435155
vt 0.767604 0.404874
vt 0.769506 0.366643
vt 0.861804 0.371236
vt 0.793292 0.433252
vn 1.0000 -0.0000 0.0000
vn 0.9239 0.3827 0.0000
vn -0.9239 -0.3827 0.0000
vn -0.7071 -0.7071 0.0000
vn -0.0000 1.0000 0.0000
vn -0.3827 0.9239 0.0000
vn 0.9239 -0.3827 0.0000
vn -0.7071 0.7071 -0.0000
vn 0.7071 -0.7071 0.0000
vn -0.3827 -0.9239 -0.0000
vn 0.3827 0.9239 0.0000
vn -0.9239 0.3827 -0.0000
vn 0.3827 -0.9239 0.0000
vn -0.0000 -1.0000 -0.0000
vn 0.7071 0.7071 0.0000
vn -1.0000 -0.0000 -0.0000
vn 0.0755 0.0313 0.9967
vn 0.0578 0.0578 0.9967
vn 0.0578 -0.0578 0.9967
vn 0.0755 -0.0313 0.9967
vn 0.0313 0.0755 0.9967
vn 0.0000 0.0818 0.9967
vn -0.0313 0.0755 0.9967
vn -0.0578 0.0578 0.9967
vn -0.0000 -0.0818 0.9967
vn 0.0313 -0.0755 0.9967
vn 0.0818 0.0000 0.9967
vn -0.0755 0.0313 0.9967
vn -0.0818 0.0000 0.9967
vn -0.0578 -0.0578 0.9967
vn -0.0313 -0.0755 0.9967
vn -0.0755 -0.0313 0.9967
vn -0.0277 0.0115 0.9996
vn -0.0300 0.0000 0.9996
vn -0.0000 0.0000 1.0000
vn -0.0277 -0.0115 0.9996
vn -0.0115 0.0277 0.9996
vn -0.0212 0.0212 0.9996
vn -0.0000 0.0300 0.9996
vn -0.0000 -0.0300 0.9996
vn 0.0115 -0.0277 0.9996
vn 0.0277 0.0115 0.9996
vn 0.0212 0.0212 0.9996
vn 0.0277 -0.0115 0.9996
vn 0.0300 0.0000 0.9996
vn 0.0212 -0.0212 0.9996
vn -0.0115 -0.0277 0.9996
vn -0.0212 -0.0212 0.9996
vn 0.0115 0.0277 0.9996
vn -0.0000 -0.0000 -1.0000
vn 0.3827 0.0000 -0.9239
vn 0.9239 0.0000 -0.3827
vn 0.9239 0.0000 0.3827
vn 0.3827 0.0000 0.9239
vn -0.3827 0.0000 0.9239
vn -0.9239 0.0000 0.3827
vn -0.9239 0.0000 -0.3827
vn -0.3827 0.0000 -0.9239
vn 0.8943 0.2510 -0.3704
vn -0.8943 0.2510 -0.3704
vn -0.3704 0.2510 0.8943
vn 0.8943 0.2510 0.3704
vn 0.3704 0.2510 -0.8943
vn -0.3704 0.2510 -0.8943
vn -0.8943 0.2510 0.3704
vn 0.3704 0.2510 0.8943
vn 0.3704 -0.2510 0.8943
vn -0.8943 -0.2510 0.3704
vn -0.3704 -0.2510 -0.8943
vn 0.3704 -0.2510 -0.8943
vn 0.8943 -0.2510 0.3704
vn -0.3704 -0.2510 0.8943
vn -0.8943 -0.2510 -0.3704
vn 0.8943 -0.2510 -0.3704
usemtl None
s 1
f 5/1/1 4/2/2 28/3/2 27/4/1
f 13/5/3 14/6/4 18/7/4 19/8/3
f 16/9/5 9/10/6 23/11/6 32/12/5
f 6/13/7 5/1/1 27/4/1 26/14/7
f 9/10/6 10/15/8 22/16/8 23/11/6
f 7/17/9 6/13/7 26/14/7 25/18/9
f 14/6/4 15/19/10 17/20/10 18/7/4
f 2/21/11 16/22/5 32/23/5 30/24/11
f 10/15/8 11/25/12 21/26/12 22/16/8
f 8/27/13 7/17/9 25/18/9 24/28/13
f 15/19/10 1/29/14 31/30/14 17/20/10
f 3/31/15 2/21/11 30/24/11 29/32/15
f 11/25/12 12/33/16 20/34/16 21/26/12
f 4/2/2 3/31/15 29/32/15 28/3/2
f 12/33/16 13/5/3 19/8/3 20/34/16
f 1/29/14 8/27/13 24/28/13 31/30/14
f 19/8/17 18/7/18 63/35/18 62/36/17
f 22/16/19 21/26/20 60/37/20 59/38/19
f 17/20/21 31/30/22 50/39/22 64/40/21
f 24/28/23 25/18/24 56/41/24 57/42/23
f 32/12/25 23/11/26 58/43/26 49/44/25
f 18/7/18 17/20/21 64/40/21 63/35/18
f 21/26/20 20/34/27 61/45/27 60/37/20
f 26/14/28 27/4/29 54/46/29 55/47/28
f 29/32/30 30/24/31 51/48/31 52/49/30
f 30/24/31 32/23/25 49/50/25 51/48/31
f 27/4/29 28/3/32 53/51/32 54/46/29
f 20/34/27 19/8/17 62/36/17 61/45/27
f 23/11/26 22/16/19 59/38/19 58/43/26
f 25/18/24 26/14/28 55/47/28 56/41/24
f 28/3/32 29/32/30 52/49/30 53/51/32
f 31/30/22 24/28/23 57/42/23 50/39/22
f 63/35/15 64/40/11 33/52/11 34/53/15
f 49/44/14 58/43/13 39/54/13 48/55/14
f 52/49/4 51/48/10 46/56/10 45/57/4
f 58/43/13 59/38/9 38/58/9 39/54/13
f 53/51/3 52/49/4 45/57/4 44/59/3
f 59/38/9 60/37/7 37/60/7 38/58/9
f 54/46/16 53/51/3 44/59/3 43/61/16
f 60/37/7 61/45/1 36/62/1 37/60/7
f 55/47/12 54/46/16 43/61/16 42/63/12
f 61/45/1 62/36/2 35/64/2 36/62/1
f 56/41/8 55/47/12 42/63/12 41/65/8
f 62/36/2 63/35/15 34/53/15 35/64/2
f 50/39/5 57/42/6 40/66/6 47/67/5
f 64/40/11 50/39/5 47/67/5 33/52/11
f 57/42/6 56/41/8 41/65/8 40/66/6
f 51/48/10 49/50/14 48/68/14 46/56/10
f 42/69/33 43/70/34 65/71/35
f 43/70/34 44/72/36 65/71/35
f 40/73/37 41/74/38 65/71/35
f 47/75/39 40/73/37 65/71/35
f 48/76/40 39/77/41 65/71/35
f 35/78/42 34/79/43 65/71/35
f 37/80/44 36/81/45 65/71/35
f 38/82/46 37/80/44 65/71/35
f 39/77/41 38/82/46 65/71/35
f 36/81/45 35/78/42 65/71/35
f 41/74/38 42/69/33 65/71/35
f 46/83/47 48/76/40 65/71/35
f 45/84/48 46/83/47 65/71/35
f 34/79/43 33/85/49 65/71/35
f 33/85/49 47/75/39 65/71/35
f 44/72/36 45/84/48 65/71/35
f 12/86/50 11/87/50 66/88/50
f 4/89/50 5/90/50 66/88/50
f 11/87/50 10/91/50 66/88/50
f 3/92/50 4/89/50 66/88/50
f 10/91/50 9/10/50 66/88/50
f 2/93/50 3/92/50 66/88/50
f 9/10/50 16/9/50 66/88/50
f 1/94/50 15/95/50 66/88/50
f 16/9/50 2/93/50 66/88/50
f 8/96/50 1/94/50 66/88/50
f 15/95/50 14/97/50 66/88/50
f 7/98/50 8/96/50 66/88/50
f 14/97/50 13/99/50 66/88/50
f 6/100/50 7/98/50 66/88/50
f 13/99/50 12/86/50 66/88/50
f 5/90/50 6/100/50 66/88/50
f 67/101/51 68/102/51 70/103/51 69/104/51
f 69/104/52 70/103/52 72/105/52 71/106/52
f 71/106/53 72/105/53 74/107/53 73/108/53
f 73/108/54 74/107/54 76/109/54 75/110/54
f 75/111/55 76/112/55 78/113/55 77/114/55
f 77/114/56 78/113/56 80/115/56 79/116/56
f 78/113/14 76/112/14 87/117/14 88/118/14
f 79/116/57 80/115/57 82/119/57 81/120/57
f 81/120/58 82/119/58 68/102/58 67/101/58
f 73/108/14 75/110/14 99/121/14
f 101/122/52 100/123/52 92/124/59 93/125/59
f 68/102/14 82/119/14 90/126/14 83/127/14
f 70/103/14 68/102/14 83/127/14 84/128/14
f 74/107/14 72/105/14 85/129/14 86/130/14
f 80/115/14 78/113/14 88/118/14 89/131/14
f 76/109/14 74/107/14 86/130/14 87/132/14
f 82/119/14 80/115/14 89/131/14 90/126/14
f 72/105/14 70/103/14 84/128/14 85/129/14
f 103/133/57 102/134/57 97/135/60 98/136/60
f 105/137/55 104/138/55 95/139/61 96/140/61
f 106/141/53 101/122/53 93/125/62 94/142/62
f 100/123/51 107/143/51 91/144/63 92/124/63
f 107/143/58 103/133/58 98/136/64 91/144/64
f 102/134/56 105/137/56 96/140/65 97/135/65
f 104/145/54 106/141/54 94/142/66 95/146/66
f 79/147/14 81/148/14 99/121/14
f 69/149/14 71/150/14 99/121/14
f 75/110/14 77/151/14 99/121/14
f 81/148/14 67/152/14 99/121/14
f 67/152/14 69/149/14 99/121/14
f 71/150/14 73/108/14 99/121/14
f 77/151/14 79/147/14 99/121/14
f 87/132/67 86/130/67 106/141/54 104/145/54
f 89/131/68 88/118/68 105/137/56 102/134/56
f 83/127/69 90/126/69 103/133/58 107/143/58
f 84/128/70 83/127/70 107/143/51 100/123/51
f 86/130/71 85/129/71 101/122/53 106/141/53
f 88/118/72 87/117/72 104/138/55 105/137/55
f 90/126/73 89/131/73 102/134/57 103/133/57
f 85/129/74 84/128/74 100/123/52 101/122/52
o Needle2_Cube.003
v 0.016948 0.238765 0.005768
v 0.000015 0.180153 0.005768
v 0.000015 0.351635 0.005768
v -0.016919 0.238765 0.005768
v 0.013793 0.241292 0.023144
v 0.000015 0.193600 0.023144
v 0.000015 0.333133 0.023144
v -0.013764 0.241292 0.023144
v 0.000015 0.243128 0.038947
vt 0.375000 0.000000
vt 0.625000 0.000000
vt 0.625000 0.250000
vt 0.375000 0.250000
vt 0.625000 0.500000
vt 0.375000 0.500000
vt 0.625000 0.750000
vt 0.375000 0.750000
vt 0.625000 0.750000
vt 0.625000 1.000000
vt 0.375000 1.000000
vt 0.125000 0.500000
vt 0.125000 0.750000
vt 0.875000 0.500000
vt 0.875000 0.750000
vt 0.375000 0.750000
vt 0.625000 0.500000
vt 0.375000 0.500000
vn -0.0000 0.0000 -1.0000
vn -0.9768 0.1465 0.1560
vn -0.9785 -0.0816 0.1895
vn -0.9040 -0.0520 0.4244
vn 0.9207 -0.2660 0.2856
vn 0.9040 -0.0520 0.4244
vn 0.7514 -0.0326 0.6590
vn 0.9393 -0.2714 0.2100
vn 0.9785 -0.0816 0.1895
vn 0.9768 0.1465 0.1560
vn -0.9393 -0.2714 0.2100
vn -0.9207 -0.2660 0.2856
vn 0.7553 0.1133 0.6455
vn -0.7514 -0.0326 0.6590
vn -0.7553 0.1133 0.6455
usemtl None
s 1
f 108/153/75 109/154/75 111/155/75 110/156/75
f 110/156/76 111/155/77 115/157/78 114/158/76
f 113/159/79 112/160/80 116/161/81
f 112/160/80 113/159/79 109/162/82 108/163/83
f 110/164/84 114/158/84 112/160/80 108/165/83
f 115/157/78 111/166/77 109/167/85 113/159/86
f 112/160/80 114/158/87 116/168/81
f 115/157/78 113/159/86 116/169/88
f 114/158/89 115/157/78 116/170/88
