# Blender v2.81 (sub 16) OBJ File: 'Assets.blend'
# www.blender.org
mtllib Vent-03.mtl
o Vent-03_Cube.013
v -0.708829 -0.708829 1.647360
v -0.708829 0.708829 1.647360
v 0.708829 -0.708829 1.647360
v 0.708829 0.708829 1.647360
v -0.800000 -0.800000 1.359072
v 0.844800 -0.844800 1.359072
v -0.844800 0.844800 1.359072
v 0.800000 0.800000 1.359072
v -0.800000 0.800000 1.359072
v 0.844800 -0.844800 1.647360
v 0.844800 0.844800 1.647360
v 0.800000 -0.800000 1.359072
v 0.844800 0.844800 1.359072
v -0.844800 0.844800 1.647360
v -0.844800 -0.844800 1.647360
v -0.844800 -0.844800 1.359072
v 1.647360 -0.708829 0.708829
v 1.647360 0.708829 0.708829
v -1.647360 -0.708829 0.708829
v -1.647360 0.708829 0.708829
v 1.647360 -0.708829 -0.708829
v 1.647360 0.708829 -0.708829
v -1.647360 -0.708829 -0.708829
v -1.647360 0.708829 -0.708829
v -1.359072 0.844800 -0.844800
v -1.359072 -0.844800 0.844800
v 1.359072 -0.800000 0.800000
v 1.359072 -0.844800 -0.844800
v 1.359072 0.844800 0.844800
v 1.359072 0.800000 -0.800000
v 1.359072 0.800000 0.800000
v 1.647360 -0.844800 -0.844800
v 1.647360 0.844800 -0.844800
v 1.359072 -0.800000 -0.800000
v 1.359072 0.844800 -0.844800
v -1.359072 -0.844800 -0.844800
v -1.647360 0.844800 -0.844800
v -1.647360 -0.844800 -0.844800
v -1.359072 0.800000 0.800000
v -1.647360 -0.844800 0.844800
v -1.647360 0.844800 0.844800
v -1.359072 -0.800000 -0.800000
v -1.359072 -0.800000 0.800000
v -1.359072 0.844800 0.844800
v 1.647360 0.844800 0.844800
v -1.359072 0.800000 -0.800000
v 1.647360 -0.844800 0.844800
v 1.359072 -0.844800 0.844800
v -0.708829 0.708829 -0.708829
v 0.708829 -0.708829 -0.708829
v 0.708829 0.708829 -0.708829
v -0.800000 -0.800000 -0.800000
v 0.800000 -0.800000 -0.800000
v -0.708829 -0.708829 0.708829
v -0.708829 0.708829 0.708829
v -0.708829 -0.708829 -0.708829
v 0.800000 0.800000 -0.800000
v 0.708829 -0.708829 0.708829
v 0.708829 0.708829 0.708829
v -0.800000 0.800000 0.800000
v -0.800000 0.800000 -0.800000
v -0.800000 -0.800000 0.800000
v 0.800000 0.800000 0.800000
v 0.800000 -0.800000 0.800000
vt 0.272608 0.391526
vt 0.272608 0.520058
vt 0.268428 0.520058
vt 0.268428 0.391526
vt 0.848853 0.758745
vt 0.710129 0.758745
vt 0.710129 0.666906
vt 0.848853 0.666906
vt 0.031370 0.256862
vt 0.031370 0.118138
vt 0.123209 0.118138
vt 0.123209 0.256862
vt 0.272608 0.770429
vt 0.272608 0.969946
vt 0.268428 0.969946
vt 0.268428 0.770429
vt 0.213340 0.632211
vt 0.228903 0.632211
vt 0.228903 0.770429
vt 0.213340 0.770429
vt 0.213340 0.520058
vt 0.228903 0.520058
vt 0.228903 0.969946
vt 0.213340 0.969946
vt 0.848853 0.942575
vt 0.710129 0.942575
vt 0.710129 0.850736
vt 0.848853 0.850736
vt 0.631218 0.118138
vt 0.631219 0.256862
vt 0.539379 0.256862
vt 0.539379 0.118138
vt 0.213340 0.391526
vt 0.228903 0.391526
vt 0.268428 0.632211
vt 0.272608 0.632211
vt 0.261933 0.348701
vt 0.123209 0.348701
vt 0.261933 0.256862
vt 0.400656 0.348701
vt 0.400656 0.256862
vt 0.710129 0.575067
vt 0.848853 0.575067
vt 0.539379 0.348701
vt 0.107485 0.520058
vt 0.107485 0.632211
vt 0.103305 0.632211
vt 0.103305 0.520058
vt 0.710129 0.758897
vt 0.848853 0.758897
vt 0.123209 0.026299
vt 0.261933 0.026299
vt 0.261933 0.118138
vt 0.190047 0.632211
vt 0.190047 0.770429
vt 0.185867 0.770429
vt 0.185867 0.632211
vt 0.107485 0.391526
vt 0.103305 0.391526
vt 0.130779 0.632211
vt 0.146342 0.632211
vt 0.146342 0.770429
vt 0.130779 0.770429
vt 0.130779 0.520058
vt 0.146342 0.520058
vt 0.146342 0.969946
vt 0.130779 0.969946
vt 0.130779 0.391526
vt 0.146342 0.391526
vt 0.048217 0.770429
vt 0.063780 0.770429
vt 0.063780 0.969946
vt 0.048217 0.969946
vt 0.048217 0.632211
vt 0.063780 0.632211
vt 0.048217 0.391526
vt 0.063780 0.391526
vt 0.063780 0.520058
vt 0.048217 0.520058
vt 0.400656 0.026299
vt 0.400656 0.118138
vt 0.539379 0.026299
vt 0.103305 0.770429
vt 0.190047 0.391526
vt 0.190047 0.520058
vt 0.185867 0.520058
vt 0.185867 0.391526
vt 0.103305 0.969946
vt 0.107485 0.770429
vt 0.185867 0.969946
vt 0.190047 0.969946
vt 0.107485 0.969946
vt 0.934166 0.232915
vt 0.934166 0.364048
vt 0.888345 0.364048
vt 0.888345 0.232915
vt 0.325102 0.924889
vt 0.325102 0.728190
vt 0.393833 0.728190
vt 0.393833 0.924889
vt 0.987398 0.575093
vt 0.987398 0.771793
vt 0.918667 0.771793
vt 0.918667 0.575093
vt 0.934166 0.495181
vt 0.888345 0.495181
vt 0.757212 0.495181
vt 0.757212 0.364048
vt 0.659263 0.728190
vt 0.659263 0.924889
vt 0.590533 0.924889
vt 0.590533 0.728190
vt 0.711391 0.364048
vt 0.711391 0.232915
vt 0.757212 0.232915
vt 0.711391 0.495181
vt 0.404311 0.617354
vt 0.404311 0.387871
vt 0.484497 0.387871
vt 0.484497 0.617354
vt 0.757212 0.187094
vt 0.888345 0.187094
vt 0.393833 0.659459
vt 0.590533 0.659459
vt 0.564683 0.387871
vt 0.564683 0.617354
vt 0.849936 0.771793
vt 0.849936 0.575093
vn 0.0000 0.0000 -1.0000
vn 1.0000 0.0000 -0.0000
vn 0.0000 1.0000 0.0000
vn -0.0000 0.0000 1.0000
vn -1.0000 0.0000 -0.0000
vn 0.0000 -1.0000 0.0000
usemtl None
s off
f 9/1/1 5/2/1 16/3/1 7/4/1
f 2/5/2 1/6/2 54/7/2 55/8/2
f 1/9/3 3/10/3 58/11/3 54/12/3
f 8/13/1 9/14/1 7/15/1 13/16/1
f 3/17/4 10/18/4 11/19/4 4/20/4
f 1/21/4 15/22/4 10/18/4 3/17/4
f 4/20/4 11/19/4 14/23/4 2/24/4
f 3/25/5 4/26/5 59/27/5 58/28/5
f 4/29/6 2/30/6 55/31/6 59/32/6
f 2/33/4 14/34/4 15/22/4 1/21/4
f 16/3/6 6/35/6 10/18/6 15/22/6
f 6/35/2 13/16/2 11/19/2 10/18/2
f 13/16/3 7/15/3 14/23/3 11/19/3
f 5/2/1 12/36/1 6/35/1 16/3/1
f 23/37/3 19/38/3 54/12/3 56/39/3
f 24/40/4 23/37/4 56/39/4 49/41/4
f 12/36/1 8/13/1 13/16/1 6/35/1
f 15/22/5 14/34/5 7/4/5 16/3/5
f 19/42/1 20/43/1 55/8/1 54/7/1
f 20/44/6 24/40/6 49/41/6 55/31/6
f 31/45/5 27/46/5 48/47/5 29/48/5
f 18/49/1 17/50/1 58/28/1 59/27/1
f 17/51/3 21/52/3 50/53/3 58/11/3
f 43/54/2 39/55/2 44/56/2 26/57/2
f 30/58/5 31/45/5 29/48/5 35/59/5
f 19/60/5 40/61/5 41/62/5 20/63/5
f 23/64/5 38/65/5 40/61/5 19/60/5
f 20/63/5 41/62/5 37/66/5 24/67/5
f 24/68/5 37/69/5 38/65/5 23/64/5
f 21/70/2 32/71/2 33/72/2 22/73/2
f 17/74/2 47/75/2 32/71/2 21/70/2
f 22/76/2 33/77/2 45/78/2 18/79/2
f 21/52/4 22/80/4 51/81/4 50/53/4
f 22/80/6 18/82/6 59/32/6 51/81/6
f 18/79/2 45/78/2 47/75/2 17/74/2
f 48/47/6 28/83/6 32/71/6 47/75/6
f 46/84/2 42/85/2 36/86/2 25/87/2
f 28/83/1 35/88/1 33/72/1 32/71/1
f 35/59/3 29/48/3 45/78/3 33/77/3
f 27/46/5 34/89/5 28/83/5 48/47/5
f 38/65/1 37/69/1 25/87/1 36/86/1
f 37/66/3 41/62/3 44/56/3 25/90/3
f 42/85/2 43/54/2 26/57/2 36/86/2
f 39/55/2 46/91/2 25/90/2 44/56/2
f 40/61/6 38/65/6 36/86/6 26/57/6
f 34/89/5 30/92/5 35/88/5 28/83/5
f 47/75/4 45/78/4 29/48/4 48/47/4
f 26/57/4 44/56/4 41/62/4 40/61/4
f 49/41/6 51/81/6 59/32/6 55/31/6
f 56/39/3 54/12/3 58/11/3 50/53/3
f 31/93/3 30/94/3 57/95/3 63/96/3
f 34/97/6 27/98/6 64/99/6 53/100/6
f 27/101/4 31/102/4 63/103/4 64/104/4
f 30/94/1 34/105/1 53/106/1 57/95/1
f 50/53/4 51/81/4 49/41/4 56/39/4
f 53/106/1 52/107/1 61/108/1 57/95/1
f 43/109/6 42/110/6 52/111/6 62/112/6
f 46/113/3 39/114/3 60/115/3 61/108/3
f 42/116/1 46/113/1 61/108/1 52/107/1
f 39/117/4 43/118/4 62/119/4 60/120/4
f 9/121/3 8/122/3 63/96/3 60/115/3
f 12/123/6 5/124/6 62/112/6 64/99/6
f 5/125/5 9/126/5 60/120/5 62/119/5
f 8/127/2 12/128/2 64/104/2 63/103/2
f 61/108/3 60/115/3 63/96/3 57/95/3
f 52/111/6 53/100/6 64/99/6 62/112/6
