# Blender v2.81 (sub 16) OBJ File: 'Assets.blend'
# www.blender.org
mtllib Radio.mtl
o Radio_Cylinder.005
v -0.000053 0.237349 -0.078441
v -0.000053 0.237349 0.077998
v 0.058308 0.222518 -0.078441
v 0.058308 0.222518 0.077998
v 0.107784 0.180281 -0.078441
v 0.107784 0.180281 0.077998
v 0.140843 0.117070 -0.078441
v 0.140843 0.117070 0.077998
v 0.152452 0.040244 -0.078441
v 0.152452 0.040244 0.077998
v -0.186221 0.021521 0.116420
v -0.186221 0.021521 -0.116420
v 0.186114 0.021521 -0.116420
v 0.186114 0.021521 0.116420
v 0.166571 0.043027 -0.104198
v 0.195587 0.000014 -0.122344
v 0.166571 0.043027 0.104198
v 0.195587 0.000014 0.122344
v -0.166677 0.043027 -0.104198
v -0.195694 0.000014 -0.122344
v -0.166677 0.043027 0.104198
v -0.195694 0.000014 0.122344
v -0.152558 0.040244 -0.078441
v -0.152558 0.040244 0.077998
v -0.140949 0.117070 -0.078441
v -0.140949 0.117070 0.077998
v -0.107890 0.180281 -0.078441
v -0.107890 0.180281 0.077998
v -0.058414 0.222518 -0.078441
v -0.058414 0.222518 0.077998
v -0.000053 0.040244 -0.078441
v -0.000053 0.213328 0.077998
v 0.051196 0.200304 0.077998
v 0.094642 0.163215 0.077998
v 0.123672 0.107707 0.077998
v 0.133866 0.040244 0.077998
v -0.133972 0.040244 0.077998
v -0.123778 0.107707 0.077998
v -0.094748 0.163215 0.077998
v -0.051302 0.200304 0.077998
v -0.000053 0.213328 0.065512
v 0.051196 0.200304 0.065512
v 0.094642 0.163215 0.065512
v 0.123672 0.107707 0.065512
v 0.133866 0.040244 0.065512
v -0.133972 0.040244 0.065512
v -0.123778 0.107707 0.065512
v -0.094748 0.163215 0.065512
v -0.051302 0.200304 0.065512
v -0.000053 0.040089 -0.091122
v -0.000053 0.040244 0.065512
v 0.000000 0.195404 0.080833
v 0.000000 0.208504 0.080833
v 0.026270 0.203278 0.080833
v 0.048541 0.188398 0.080833
v 0.063422 0.166127 0.080833
v 0.068647 0.139857 0.080833
v 0.063422 0.113587 0.080833
v 0.048541 0.091316 0.080833
v 0.026270 0.076435 0.080833
v 0.000000 0.071210 0.080833
v -0.026270 0.076435 0.080833
v -0.048541 0.091316 0.080833
v -0.063422 0.113587 0.080833
v -0.068647 0.139857 0.080833
v -0.063422 0.166127 0.080833
v -0.048541 0.188398 0.080833
v -0.026270 0.203278 0.080833
v 0.000000 0.217325 0.063730
v 0.029646 0.211428 0.063730
v 0.054778 0.194635 0.063730
v 0.071571 0.169502 0.063730
v 0.077468 0.139857 0.063730
v 0.071571 0.110211 0.063730
v 0.054778 0.085078 0.063729
v 0.029646 0.068286 0.063729
v 0.000000 0.062389 0.063729
v -0.029646 0.068286 0.063729
v -0.054778 0.085078 0.063729
v -0.071571 0.110211 0.063730
v -0.077468 0.139857 0.063730
v -0.071571 0.169502 0.063730
v -0.054778 0.194635 0.063730
v -0.029646 0.211428 0.063730
v -0.101169 0.095134 0.080935
v -0.092800 0.051958 0.080935
v -0.101169 0.106971 0.057262
v -0.101169 0.106971 0.080935
v -0.096640 0.106070 0.057262
v -0.096640 0.106070 0.080935
v -0.092800 0.103504 0.057262
v -0.092800 0.103504 0.080935
v -0.090234 0.099664 0.057262
v -0.090234 0.099664 0.080935
v -0.089333 0.095134 0.057262
v -0.089333 0.095134 0.080935
v -0.090234 0.090605 0.057262
v -0.090234 0.090605 0.080935
v -0.092800 0.086765 0.057262
v -0.092800 0.086765 0.080935
v -0.096640 0.084199 0.057262
v -0.096640 0.084199 0.080935
v -0.101169 0.083298 0.057262
v -0.101169 0.083298 0.080935
v -0.105699 0.084199 0.057262
v -0.105699 0.084199 0.080935
v -0.109539 0.086765 0.057262
v -0.109539 0.086765 0.080935
v -0.112105 0.090605 0.057262
v -0.112105 0.090605 0.080935
v -0.113006 0.095134 0.057262
v -0.113006 0.095134 0.080935
v -0.112105 0.099664 0.057262
v -0.112105 0.099664 0.080935
v -0.109539 0.103504 0.057262
v -0.109539 0.103504 0.080935
v -0.105699 0.106070 0.057262
v -0.105699 0.106070 0.080935
v -0.092800 0.051958 0.057262
v -0.090234 0.055798 0.080935
v -0.090234 0.055798 0.057262
v -0.089333 0.060328 0.080935
v -0.089333 0.060328 0.057262
v -0.090234 0.064857 0.080935
v -0.090234 0.064857 0.057262
v -0.092800 0.068697 0.080935
v -0.092800 0.068697 0.057262
v -0.096640 0.071263 0.080935
v -0.096640 0.071263 0.057262
v -0.101169 0.072164 0.080935
v -0.101169 0.072164 0.057262
v -0.101169 0.060328 0.080935
v -0.096640 0.049392 0.057262
v -0.096640 0.049392 0.080935
v -0.101169 0.048491 0.057262
v -0.101169 0.048491 0.080935
v -0.105699 0.049392 0.057262
v -0.105699 0.049392 0.080935
v -0.109539 0.051958 0.057262
v -0.109539 0.051958 0.080935
v -0.112105 0.055798 0.057262
v -0.112105 0.055798 0.080935
v -0.113006 0.060328 0.057262
v -0.113006 0.060328 0.080935
v -0.112105 0.064857 0.057262
v -0.112105 0.064857 0.080935
v -0.109539 0.068697 0.057262
v -0.109539 0.068697 0.080935
v -0.105699 0.071263 0.057262
v -0.105699 0.071263 0.080935
v 0.021257 0.191176 0.080833
v 0.039278 0.179135 0.080833
v 0.051319 0.161114 0.080833
v 0.055548 0.139857 0.080833
v 0.051319 0.118600 0.080833
v 0.039278 0.100579 0.080833
v 0.021257 0.088538 0.080833
v 0.000000 0.084309 0.080833
v -0.021257 0.088538 0.080833
v -0.039278 0.100579 0.080833
v -0.051319 0.118600 0.080833
v -0.055547 0.139857 0.080833
v -0.051319 0.161114 0.080833
v -0.039278 0.179135 0.080833
v -0.021257 0.191176 0.080833
v 0.000000 0.189120 0.072141
v 0.018852 0.185370 0.072141
v 0.034834 0.174691 0.072141
v 0.045513 0.158709 0.072141
v 0.049263 0.139857 0.072141
v 0.045513 0.121005 0.072141
v 0.034834 0.105022 0.072141
v 0.018852 0.094344 0.072141
v 0.000000 0.090594 0.072141
v -0.018852 0.094344 0.072141
v -0.034834 0.105022 0.072141
v -0.045513 0.121005 0.072141
v -0.049263 0.139857 0.072141
v -0.045513 0.158709 0.072141
v -0.034834 0.174691 0.072141
v -0.018852 0.185370 0.072141
v 0.000000 0.139857 0.072141
vt 0.839221 0.602328
vt 0.723089 0.526867
vt 0.752135 0.482165
vt 0.868268 0.557626
vt 0.783514 0.433873
vt 0.899647 0.509335
vt 0.817924 0.380918
vt 0.934057 0.456380
vt 0.855403 0.323239
vt 0.971536 0.398700
vt 0.167619 0.078497
vt 0.171408 0.063468
vt 0.320316 0.063468
vt 0.324105 0.078497
vt 0.167619 0.328733
vt 0.153353 0.322675
vt 0.153353 0.084555
vt 0.487467 0.097053
vt 0.487467 0.310176
vt 0.354190 0.310176
vt 0.354190 0.097054
vt 0.324105 0.328733
vt 0.338371 0.084555
vt 0.338371 0.322675
vt 0.179224 0.044883
vt 0.312500 0.044883
vt 0.137533 0.310176
vt 0.137533 0.097054
vt 0.320316 0.343762
vt 0.312500 0.362346
vt 0.179224 0.362346
vt 0.171408 0.343762
vt 0.706907 0.805956
vt 0.590774 0.730495
vt 0.628254 0.672815
vt 0.744386 0.748276
vt 0.662663 0.619860
vt 0.778796 0.695321
vt 0.694042 0.571568
vt 0.810175 0.647030
vt 0.829840 0.861779
vt 0.849515 0.693487
vt 0.901989 0.702894
vt 0.971536 0.851424
vt 0.952772 0.917602
vt 0.794173 0.709423
vt 0.943604 0.736212
vt 0.968026 0.788369
vt 0.653082 0.614448
vt 0.611842 0.667688
vt 0.634247 0.613346
vt 0.617239 0.418102
vt 0.645529 0.460200
vt 0.627509 0.465570
vt 0.602486 0.424865
vt 0.662358 0.507228
vt 0.641518 0.511182
vt 0.664679 0.558992
vt 0.644465 0.560618
vt 0.579849 0.380747
vt 0.568959 0.389507
vt 0.578882 0.720097
vt 0.535035 0.349074
vt 0.529291 0.360291
vt 0.623435 0.610062
vt 0.633235 0.559815
vt 0.569407 0.714191
vt 0.601684 0.662413
vt 0.594785 0.430633
vt 0.562889 0.396236
vt 0.630748 0.513012
vt 0.618031 0.469705
vt 0.524222 0.367100
vt 0.574519 0.646857
vt 0.593632 0.571648
vt 0.339626 0.571648
vt 0.574519 0.496439
vt 0.520090 0.432680
vt 0.438630 0.390077
vt 0.339626 0.768178
vt 0.438630 0.753218
vt 0.520090 0.710616
vt 0.339626 0.375118
vt 0.102224 0.445751
vt 0.116838 0.468500
vt 0.092793 0.492951
vt 0.070557 0.477614
vt 0.148520 0.455204
vt 0.182969 0.455089
vt 0.179711 0.471624
vt 0.151840 0.471681
vt 0.080058 0.524776
vt 0.053608 0.519169
vt 0.214903 0.468191
vt 0.205559 0.482254
vt 0.080534 0.559155
vt 0.053832 0.564113
vt 0.150526 0.628483
vt 0.118902 0.614945
vt 0.128123 0.601026
vt 0.153840 0.611827
vt 0.094159 0.590935
vt 0.071177 0.605846
vt 0.108160 0.581354
vt 0.103516 0.638244
vt 0.126219 0.482384
vt 0.145606 0.654341
vt 0.106804 0.502117
vt 0.096559 0.527832
vt 0.184874 0.628115
vt 0.189649 0.654285
vt 0.216287 0.614877
vt 0.181530 0.611775
vt 0.206932 0.601086
vt 0.230754 0.637412
vt 0.240257 0.590545
vt 0.262370 0.605874
vt 0.253094 0.558752
vt 0.279502 0.564464
vt 0.239436 0.492507
vt 0.225434 0.501952
vt 0.252834 0.524317
vt 0.279502 0.519510
vt 0.226264 0.581377
vt 0.262297 0.477869
vt 0.236311 0.527717
vt 0.230455 0.445929
vt 0.236570 0.555613
vt 0.188825 0.428594
vt 0.097051 0.555631
vt 0.143778 0.428531
vt 0.675702 0.128410
vt 0.675702 0.096591
vt 0.755686 0.112500
vt 0.932263 0.224988
vt 0.868197 0.224989
vt 0.868197 0.212490
vt 0.932263 0.212490
vt 0.932263 0.224988
vt 0.868197 0.224989
vt 0.868197 0.212490
vt 0.932263 0.212490
vt 0.932263 0.125000
vt 0.868197 0.125000
vt 0.868197 0.112501
vt 0.932263 0.112501
vt 0.710379 0.180307
vt 0.687878 0.157808
vt 0.755686 0.112500
vt 0.868197 0.199992
vt 0.932263 0.199991
vt 0.739777 0.192484
vt 0.710379 0.180307
vt 0.675702 0.128410
vt 0.868197 0.187493
vt 0.932263 0.187493
vt 0.932263 0.149997
vt 0.868197 0.149997
vt 0.868197 0.137499
vt 0.932263 0.137499
vt 0.675702 0.096591
vt 0.687878 0.067193
vt 0.868197 0.174994
vt 0.932263 0.174994
vt 0.823493 0.157807
vt 0.800993 0.180307
vt 0.739776 0.032516
vt 0.771595 0.032516
vt 0.868197 0.162496
vt 0.932263 0.162496
vt 0.932263 0.162496
vt 0.868197 0.162496
vt 0.823493 0.067192
vt 0.835670 0.096590
vt 0.868197 0.149997
vt 0.932263 0.149997
vt 0.823493 0.067192
vt 0.835670 0.096589
vt 0.823493 0.157807
vt 0.800993 0.180307
vt 0.868197 0.137499
vt 0.932263 0.137499
vt 0.932263 0.174994
vt 0.868197 0.174994
vt 0.739776 0.192484
vt 0.868197 0.125000
vt 0.932263 0.125000
vt 0.739775 0.032516
vt 0.771595 0.032516
vt 0.868197 0.112501
vt 0.932263 0.112501
vt 0.932263 0.187493
vt 0.868197 0.187493
vt 0.710378 0.044693
vt 0.868197 0.100003
vt 0.932263 0.100003
vt 0.687878 0.067193
vt 0.800993 0.044693
vt 0.868197 0.087504
vt 0.932263 0.087504
vt 0.932263 0.199991
vt 0.868197 0.199991
vt 0.835670 0.128410
vt 0.868197 0.075006
vt 0.932263 0.075006
vt 0.687879 0.157808
vt 0.771595 0.192484
vt 0.868197 0.062507
vt 0.932263 0.062507
vt 0.868197 0.050008
vt 0.932263 0.050009
vt 0.868197 0.037510
vt 0.932263 0.037510
vt 0.868197 0.025011
vt 0.932263 0.025011
vt 0.710378 0.044693
vt 0.868197 0.100003
vt 0.932263 0.100003
vt 0.800993 0.044692
vt 0.868197 0.087504
vt 0.932263 0.087504
vt 0.835670 0.128409
vt 0.868197 0.075006
vt 0.932263 0.075006
vt 0.771596 0.192484
vt 0.868197 0.062507
vt 0.932263 0.062507
vt 0.868197 0.050008
vt 0.932263 0.050009
vt 0.868197 0.037510
vt 0.932263 0.037510
vt 0.868197 0.025011
vt 0.932263 0.025011
vt 0.177272 0.484750
vt 0.154620 0.484673
vt 0.156392 0.598724
vt 0.178795 0.598880
vt 0.198285 0.493479
vt 0.135407 0.589871
vt 0.133747 0.493302
vt 0.214419 0.509564
vt 0.119198 0.573643
vt 0.223241 0.530565
vt 0.110087 0.552657
vt 0.223442 0.553281
vt 0.109610 0.530094
vt 0.215109 0.574259
vt 0.117934 0.509242
vt 0.199426 0.590262
vt 0.301363 0.847361
vt 0.282478 0.892955
vt 0.177314 0.822686
vt 0.072150 0.752418
vt 0.107045 0.717522
vt 0.247582 0.927851
vt 0.152639 0.698637
vt 0.201989 0.946736
vt 0.201989 0.698637
vt 0.152639 0.946736
vt 0.247582 0.717522
vt 0.107045 0.927851
vt 0.282478 0.752418
vt 0.072150 0.892955
vt 0.053264 0.847361
vt 0.301363 0.798011
vt 0.053264 0.798011
vn 0.0000 1.0000 0.0000
vn 0.4598 0.8880 0.0000
vn 0.7819 0.6234 0.0000
vn 0.9505 0.3107 0.0000
vn 0.9888 0.1494 0.0000
vn 0.9152 0.4031 0.0000
vn 0.8571 0.5151 0.0000
vn 0.0000 0.2656 -0.9641
vn 0.0000 0.3395 -0.9406
vn 0.0000 -1.0000 0.0000
vn 0.0000 0.3395 0.9406
vn 0.0000 0.4941 0.8694
vn 0.7401 0.6725 0.0000
vn 0.0000 0.4941 -0.8694
vn -0.8571 0.5151 0.0000
vn -0.7401 0.6725 0.0000
vn -0.9888 0.1494 0.0000
vn -0.9505 0.3107 0.0000
vn -0.7819 0.6234 0.0000
vn -0.9152 0.4031 0.0000
vn -0.4598 0.8880 0.0000
vn 0.0000 0.2656 0.9641
vn 0.0000 -0.0000 -1.0000
vn -0.0000 0.0000 1.0000
vn 0.4598 -0.8880 0.0000
vn 0.7819 -0.6234 0.0000
vn 0.9505 -0.3107 0.0000
vn 0.9888 -0.1494 0.0000
vn -0.9505 -0.3107 0.0000
vn -0.7819 -0.6234 0.0000
vn -0.4598 -0.8880 0.0000
vn -0.9888 -0.1494 0.0000
vn -0.0000 0.8888 0.4584
vn 0.3401 0.8211 0.4584
vn 0.6284 0.6284 0.4584
vn 0.8211 0.3401 0.4584
vn 0.8888 -0.0000 0.4584
vn 0.8211 -0.3401 0.4584
vn 0.6284 -0.6284 0.4584
vn 0.3401 -0.8211 0.4584
vn 0.0000 -0.8888 0.4584
vn -0.3401 -0.8211 0.4584
vn -0.6284 -0.6284 0.4584
vn -0.8211 -0.3401 0.4584
vn -0.8888 -0.0000 0.4584
vn -0.8211 0.3401 0.4584
vn -0.6284 0.6284 0.4584
vn -0.3401 0.8211 0.4584
vn 0.3827 0.9239 0.0000
vn -0.3827 -0.9239 -0.0000
vn 0.7071 0.7071 0.0000
vn 0.9239 0.3827 0.0000
vn 0.7071 -0.7071 -0.0000
vn 0.3827 -0.9239 -0.0000
vn 1.0000 0.0000 0.0000
vn 0.9239 -0.3827 0.0000
vn -0.7071 -0.7071 -0.0000
vn -0.9239 -0.3827 0.0000
vn -1.0000 0.0000 0.0000
vn -0.9239 0.3827 0.0000
vn -0.7071 0.7071 0.0000
vn -0.3827 0.9239 0.0000
vn 0.3101 -0.7487 0.5859
vn 0.5730 -0.5730 0.5859
vn -0.3101 0.7487 0.5859
vn -0.5730 0.5730 0.5859
vn 0.7487 -0.3101 0.5859
vn -0.7487 0.3101 0.5859
vn 0.0000 -0.8104 0.5859
vn 0.8104 0.0000 0.5859
vn -0.8104 -0.0000 0.5859
vn 0.7487 0.3101 0.5859
vn -0.7487 -0.3101 0.5859
vn 0.5730 0.5730 0.5859
vn -0.5730 -0.5730 0.5859
vn 0.3101 0.7487 0.5859
vn -0.3101 -0.7487 0.5859
vn -0.0000 0.8104 0.5859
usemtl None
s 1
f 1/1/1 2/2/1 4/3/2 3/4/2
f 3/4/2 4/3/2 6/5/3 5/6/3
f 5/6/3 6/5/3 8/7/4 7/8/4
f 7/8/4 8/7/4 10/9/5 9/10/5
f 16/11/6 13/12/7 14/13/7 18/14/6
f 20/15/8 12/16/9 13/17/9 16/11/8
f 15/18/1 19/19/1 21/20/1 17/21/1
f 20/15/10 16/11/10 18/14/10 22/22/10
f 14/23/11 17/21/12 21/20/12 11/24/11
f 13/12/7 15/25/13 17/26/13 14/13/7
f 12/16/9 19/27/14 15/28/14 13/17/9
f 11/29/15 21/30/16 19/31/16 12/32/15
f 23/33/17 24/34/17 26/35/18 25/36/18
f 25/36/18 26/35/18 28/37/19 27/38/19
f 22/22/20 11/29/15 12/32/15 20/15/20
f 27/38/19 28/37/19 30/39/21 29/40/21
f 29/40/21 30/39/21 2/2/1 1/1/1
f 18/14/22 14/23/11 11/24/11 22/22/22
f 23/33/23 25/36/23 31/41/23
f 29/42/23 1/43/23 31/41/23
f 7/44/23 9/45/23 31/41/23
f 25/36/23 27/46/23 31/41/23
f 3/47/23 5/48/23 31/41/23
f 1/43/23 3/47/23 31/41/23
f 27/46/23 29/42/23 31/41/23
f 5/48/23 7/44/23 31/41/23
f 28/49/24 26/35/24 38/50/24 39/51/24
f 6/52/24 4/53/24 33/54/24 34/55/24
f 4/53/24 2/56/24 32/57/24 33/54/24
f 30/58/24 28/49/24 39/51/24 40/59/24
f 8/60/24 6/52/24 34/55/24 35/61/24
f 26/35/24 24/34/24 37/62/24 38/50/24
f 2/56/24 30/58/24 40/59/24 32/57/24
f 10/63/24 8/60/24 35/61/24 36/64/24
f 40/59/25 39/51/26 48/65/26 49/66/25
f 38/50/27 37/62/28 46/67/28 47/68/27
f 35/61/29 34/55/30 43/69/30 44/70/29
f 33/54/31 32/57/10 41/71/10 42/72/31
f 32/57/10 40/59/25 49/66/25 41/71/10
f 39/51/26 38/50/27 47/68/27 48/65/26
f 36/64/32 35/61/29 44/70/29 45/73/32
f 34/55/30 33/54/31 42/72/31 43/69/30
f 42/74/24 41/75/24 51/76/24
f 41/75/24 49/77/24 51/76/24
f 48/78/24 47/79/24 51/76/24
f 45/80/24 44/81/24 51/76/24
f 43/82/24 42/74/24 51/76/24
f 49/77/24 48/78/24 51/76/24
f 47/79/24 46/83/24 51/76/24
f 44/81/24 43/82/24 51/76/24
f 69/84/33 53/85/33 54/86/34 70/87/34
f 68/88/24 67/89/24 164/90/24 165/91/24
f 70/87/34 54/86/34 55/92/35 71/93/35
f 67/89/24 66/94/24 163/95/24 164/90/24
f 71/93/35 55/92/35 56/96/36 72/97/36
f 59/98/24 58/99/24 155/100/24 156/101/24
f 72/97/36 56/96/36 57/102/37 73/103/37
f 58/99/24 57/102/24 154/104/24 155/100/24
f 73/103/37 57/102/37 58/99/38 74/105/38
f 53/85/24 68/88/24 165/91/24 52/106/24
f 74/105/38 58/99/38 59/98/39 75/107/39
f 55/92/24 54/86/24 151/108/24 152/109/24
f 75/107/39 59/98/39 60/110/40 76/111/40
f 61/112/24 60/110/24 157/113/24 158/114/24
f 76/111/40 60/110/40 61/112/41 77/115/41
f 60/110/24 59/98/24 156/101/24 157/113/24
f 77/115/41 61/112/41 62/116/42 78/117/42
f 54/86/24 53/85/24 52/106/24 151/108/24
f 78/117/42 62/116/42 63/118/43 79/119/43
f 66/94/24 65/120/24 162/121/24 163/95/24
f 79/119/43 63/118/43 64/122/44 80/123/44
f 62/116/24 61/112/24 158/114/24 159/124/24
f 80/123/44 64/122/44 65/120/45 81/125/45
f 65/120/24 64/122/24 161/126/24 162/121/24
f 81/125/45 65/120/45 66/94/46 82/127/46
f 64/122/24 63/118/24 160/128/24 161/126/24
f 82/127/46 66/94/46 67/89/47 83/129/47
f 56/96/24 55/92/24 152/109/24 153/130/24
f 57/102/24 56/96/24 153/130/24 154/104/24
f 83/129/47 67/89/47 68/88/48 84/131/48
f 84/131/48 68/88/48 53/85/33 69/84/33
f 63/118/24 62/116/24 159/124/24 160/128/24
f 150/132/24 148/133/24 132/134/24
f 131/135/1 130/136/1 128/137/49 129/138/49
f 87/139/1 88/140/1 90/141/49 89/142/49
f 135/143/10 136/144/10 138/145/50 137/146/50
f 90/147/24 88/148/24 85/149/24
f 89/142/49 90/141/49 92/150/51 91/151/51
f 126/152/24 128/153/24 132/134/24
f 88/148/24 118/154/24 85/149/24
f 91/151/51 92/150/51 94/155/52 93/156/52
f 119/157/53 86/158/53 134/159/54 133/160/54
f 116/161/24 114/162/24 85/149/24
f 93/156/52 94/155/52 96/163/55 95/164/55
f 120/165/24 122/166/24 132/134/24
f 110/167/24 108/168/24 85/149/24
f 95/164/55 96/163/55 98/169/56 97/170/56
f 121/171/56 120/172/56 86/158/53 119/157/53
f 104/173/24 102/174/24 85/149/24
f 97/170/56 98/169/56 100/175/53 99/176/53
f 136/177/24 134/178/24 132/134/24
f 98/179/24 96/180/24 85/149/24
f 99/176/53 100/175/53 102/181/54 101/182/54
f 123/183/55 122/184/55 120/172/56 121/171/56
f 92/185/24 90/147/24 85/149/24
f 101/182/54 102/181/54 104/186/10 103/187/10
f 142/188/24 140/189/24 132/134/24
f 118/154/24 116/161/24 85/149/24
f 103/187/10 104/186/10 106/190/50 105/191/50
f 125/192/52 124/193/52 122/184/55 123/183/55
f 112/194/24 110/167/24 85/149/24
f 105/191/50 106/190/50 108/195/57 107/196/57
f 148/133/24 146/197/24 132/134/24
f 106/198/24 104/173/24 85/149/24
f 107/196/57 108/195/57 110/199/58 109/200/58
f 127/201/51 126/202/51 124/193/52 125/192/52
f 100/203/24 98/179/24 85/149/24
f 109/200/58 110/199/58 112/204/59 111/205/59
f 130/206/24 150/132/24 132/134/24
f 94/207/24 92/185/24 85/149/24
f 111/205/59 112/204/59 114/208/60 113/209/60
f 129/138/49 128/137/49 126/202/51 127/201/51
f 114/162/24 112/194/24 85/149/24
f 113/209/60 114/208/60 116/210/61 115/211/61
f 96/180/24 94/207/24 85/149/24
f 108/168/24 106/198/24 85/149/24
f 115/211/61 116/210/61 118/212/62 117/213/62
f 133/160/54 134/159/54 136/144/10 135/143/10
f 128/153/24 130/206/24 132/134/24
f 117/213/62 118/212/62 88/214/1 87/215/1
f 102/174/24 100/203/24 85/149/24
f 144/216/24 142/188/24 132/134/24
f 137/146/50 138/145/50 140/217/57 139/218/57
f 138/219/24 136/177/24 132/134/24
f 139/218/57 140/217/57 142/220/58 141/221/58
f 86/222/24 120/165/24 132/134/24
f 141/221/58 142/220/58 144/223/59 143/224/59
f 124/225/24 126/152/24 132/134/24
f 143/224/59 144/223/59 146/226/60 145/227/60
f 146/197/24 144/216/24 132/134/24
f 145/227/60 146/226/60 148/228/61 147/229/61
f 122/166/24 124/225/24 132/134/24
f 140/189/24 138/219/24 132/134/24
f 147/229/61 148/228/61 150/230/62 149/231/62
f 149/231/62 150/230/62 130/232/1 131/233/1
f 134/178/24 86/222/24 132/134/24
f 165/91/63 164/90/64 180/234/64 181/235/63
f 157/113/65 156/101/66 172/236/66 173/237/65
f 164/90/64 163/95/67 179/238/67 180/234/64
f 156/101/66 155/100/68 171/239/68 172/236/66
f 52/106/69 165/91/63 181/235/63 166/240/69
f 163/95/67 162/121/70 178/241/70 179/238/67
f 155/100/68 154/104/71 170/242/71 171/239/68
f 162/121/70 161/126/72 177/243/72 178/241/70
f 154/104/71 153/130/73 169/244/73 170/242/71
f 161/126/72 160/128/74 176/245/74 177/243/72
f 153/130/73 152/109/75 168/246/75 169/244/73
f 160/128/74 159/124/76 175/247/76 176/245/74
f 152/109/75 151/108/77 167/248/77 168/246/75
f 159/124/76 158/114/78 174/249/78 175/247/76
f 151/108/77 52/106/69 166/240/69 167/248/77
f 158/114/78 157/113/65 173/237/65 174/249/78
f 172/250/24 171/251/24 182/252/24
f 179/253/24 178/254/24 182/252/24
f 171/251/24 170/255/24 182/252/24
f 178/254/24 177/256/24 182/252/24
f 170/255/24 169/257/24 182/252/24
f 177/256/24 176/258/24 182/252/24
f 169/257/24 168/259/24 182/252/24
f 176/258/24 175/260/24 182/252/24
f 168/259/24 167/261/24 182/252/24
f 175/260/24 174/262/24 182/252/24
f 166/263/24 181/264/24 182/252/24
f 167/261/24 166/263/24 182/252/24
f 174/262/24 173/265/24 182/252/24
f 181/264/24 180/266/24 182/252/24
f 173/265/24 172/250/24 182/252/24
f 180/266/24 179/253/24 182/252/24
