# Blender v2.81 (sub 16) OBJ File: 'Assets.blend'
# www.blender.org
mtllib Vent04.mtl
o Vent-04_Cube.014
v -0.708829 -0.708829 1.647360
v -0.708829 0.708829 1.647360
v 0.708829 -0.708829 1.647360
v 0.708829 0.708829 1.647360
v -0.800000 -0.800000 1.359072
v 0.844800 -0.844800 1.359072
v -0.844800 0.844800 1.359072
v 0.800000 0.800000 1.359072
v -0.800000 0.800000 1.359072
v 0.844800 -0.844800 1.647360
v 0.844800 0.844800 1.647360
v 0.800000 -0.800000 1.359072
v 0.844800 0.844800 1.359072
v -0.844800 0.844800 1.647360
v -0.844800 -0.844800 1.647360
v -0.844800 -0.844800 1.359072
v 1.647360 -0.708829 0.708829
v 1.647360 0.708829 0.708829
v 1.647360 -0.708829 -0.708829
v 1.647360 0.708829 -0.708829
v 1.359072 -0.800000 0.800000
v 1.359072 -0.844800 -0.844800
v 1.359072 0.844800 0.844800
v 1.359072 0.800000 -0.800000
v 1.359072 0.800000 0.800000
v 1.647360 -0.844800 -0.844800
v 1.647360 0.844800 -0.844800
v 1.359072 -0.800000 -0.800000
v 1.359072 0.844800 -0.844800
v 1.647360 0.844800 0.844800
v 1.647360 -0.844800 0.844800
v 1.359072 -0.844800 0.844800
v -0.708829 0.708829 -0.708829
v 0.708829 -0.708829 -0.708829
v 0.708829 0.708829 -0.708829
v -0.800000 -0.800000 -0.800000
v 0.800000 -0.800000 -0.800000
v -0.708829 -0.708829 0.708829
v -0.708829 0.708829 0.708829
v -0.708829 -0.708829 -0.708829
v 0.800000 0.800000 -0.800000
v 0.708829 -0.708829 0.708829
v 0.708829 0.708829 0.708829
v -0.800000 0.800000 0.800000
v -0.800000 0.800000 -0.800000
v -0.800000 -0.800000 0.800000
v 0.800000 0.800000 0.800000
v 0.800000 -0.800000 0.800000
vt 0.046050 0.927760
vt 0.046050 0.734948
vt 0.052321 0.734948
vt 0.052321 0.927760
vt 0.690390 0.291570
vt 0.787448 0.291570
vt 0.787448 0.355825
vt 0.690390 0.355825
vt 0.884505 0.291570
vt 0.884505 0.355825
vt 0.046050 0.359361
vt 0.046050 0.060065
vt 0.052321 0.060065
vt 0.052321 0.359361
vt 0.134959 0.566706
vt 0.111613 0.566706
vt 0.111613 0.359361
vt 0.134959 0.359361
vt 0.134959 0.734948
vt 0.111613 0.734948
vt 0.111613 0.060065
vt 0.134959 0.060065
vt 0.496276 0.291570
vt 0.593333 0.291570
vt 0.593333 0.355825
vt 0.496276 0.355825
vt 0.134959 0.927760
vt 0.111613 0.927760
vt 0.052321 0.566706
vt 0.046050 0.566706
vt 0.169834 0.927760
vt 0.169834 0.734948
vt 0.176105 0.734948
vt 0.176105 0.927760
vt 0.948760 0.646997
vt 0.948760 0.744054
vt 0.884505 0.744054
vt 0.884505 0.646997
vt 0.948760 0.355825
vt 0.948760 0.452882
vt 0.884505 0.452882
vt 0.169834 0.359361
vt 0.169834 0.060065
vt 0.176105 0.060065
vt 0.176105 0.359361
vt 0.258743 0.566706
vt 0.235397 0.566706
vt 0.235397 0.359361
vt 0.258743 0.359361
vt 0.258743 0.734948
vt 0.235397 0.734948
vt 0.235397 0.060065
vt 0.258743 0.060065
vt 0.948760 0.549940
vt 0.884505 0.549940
vt 0.258743 0.927760
vt 0.235397 0.927760
vt 0.176105 0.566706
vt 0.169834 0.566706
vt 0.690390 0.452882
vt 0.593333 0.452882
vt 0.787448 0.452882
vt 0.862167 0.874130
vt 0.758133 0.874130
vt 0.758133 0.837779
vt 0.862167 0.837779
vt 0.654100 0.874130
vt 0.550067 0.874130
vt 0.550067 0.837779
vt 0.654100 0.837779
vt 0.966200 0.874130
vt 0.966200 0.837779
vt 0.787448 0.549940
vt 0.654100 0.733746
vt 0.758133 0.733746
vt 0.550067 0.629713
vt 0.654100 0.629713
vt 0.550067 0.733746
vt 0.513715 0.629713
vt 0.513715 0.525679
vt 0.550067 0.525679
vt 0.513716 0.837779
vt 0.513715 0.733746
vt 0.513715 0.421646
vt 0.550067 0.421646
vt 0.654100 0.525679
vn 0.0000 0.0000 -1.0000
vn 1.0000 0.0000 -0.0000
vn 0.0000 1.0000 0.0000
vn -0.0000 0.0000 1.0000
vn -1.0000 0.0000 -0.0000
vn 0.0000 -1.0000 0.0000
usemtl None
s off
f 9/1/1 5/2/1 16/3/1 7/4/1
f 2/5/2 1/6/2 38/7/2 39/8/2
f 1/6/3 3/9/3 42/10/3 38/7/3
f 8/11/1 9/12/1 7/13/1 13/14/1
f 3/15/4 10/16/4 11/17/4 4/18/4
f 1/19/4 15/20/4 10/16/4 3/15/4
f 4/18/4 11/17/4 14/21/4 2/22/4
f 3/23/5 4/24/5 43/25/5 42/26/5
f 4/24/6 2/5/6 39/8/6 43/25/6
f 2/27/4 14/28/4 15/20/4 1/19/4
f 16/3/6 6/29/6 10/16/6 15/20/6
f 6/29/2 13/14/2 11/17/2 10/16/2
f 13/14/3 7/13/3 14/21/3 11/17/3
f 5/2/1 12/30/1 6/29/1 16/3/1
f 12/30/1 8/11/1 13/14/1 6/29/1
f 15/20/5 14/28/5 7/4/5 16/3/5
f 25/31/5 21/32/5 32/33/5 23/34/5
f 18/35/1 17/36/1 42/37/1 43/38/1
f 17/39/3 19/40/3 34/41/3 42/10/3
f 24/42/5 25/43/5 23/44/5 29/45/5
f 19/46/2 26/47/2 27/48/2 20/49/2
f 17/50/2 31/51/2 26/47/2 19/46/2
f 20/49/2 27/48/2 30/52/2 18/53/2
f 19/40/4 20/54/4 35/55/4 34/41/4
f 20/54/6 18/35/6 43/38/6 35/55/6
f 18/56/2 30/57/2 31/51/2 17/50/2
f 32/33/6 22/58/6 26/47/6 31/51/6
f 22/58/1 29/45/1 27/48/1 26/47/1
f 29/45/3 23/44/3 30/52/3 27/48/3
f 21/32/5 28/59/5 22/58/5 32/33/5
f 28/59/5 24/42/5 29/45/5 22/58/5
f 31/51/4 30/57/4 23/34/4 32/33/4
f 33/60/6 35/61/6 43/25/6 39/8/6
f 40/62/3 38/7/3 42/10/3 34/41/3
f 25/63/3 24/64/3 41/65/3 47/66/3
f 28/67/6 21/68/6 48/69/6 37/70/6
f 21/71/4 25/63/4 47/66/4 48/72/4
f 24/64/1 28/67/1 37/70/1 41/65/1
f 34/41/4 35/55/4 33/73/4 40/62/4
f 37/70/1 36/74/1 45/75/1 41/65/1
f 38/7/2 40/62/2 33/60/2 39/8/2
f 44/76/5 45/77/5 36/74/5 46/78/5
f 9/79/3 8/80/3 47/81/3 44/76/3
f 12/82/6 5/83/6 46/78/6 48/69/6
f 5/83/5 9/79/5 44/76/5 46/78/5
f 8/80/2 12/84/2 48/85/2 47/81/2
f 45/77/3 44/76/3 47/81/3 41/86/3
f 36/74/6 37/70/6 48/69/6 46/78/6
