# Blender v2.81 (sub 16) OBJ File: 'Assets.blend'
# www.blender.org
mtllib Vent01.mtl
o Vent-01_Cube.010
v -0.708829 -0.708829 1.647360
v -0.708829 0.708829 1.647360
v -0.708829 -0.708829 -1.647360
v -0.708829 0.708829 -1.647360
v 0.708829 -0.708829 1.647360
v 0.708829 0.708829 1.647360
v 0.708829 -0.708829 -1.647360
v 0.708829 0.708829 -1.647360
v 0.844800 0.844800 -1.359072
v -0.844800 -0.844800 -1.359072
v -0.800000 -0.800000 1.359072
v 0.844800 -0.844800 1.359072
v -0.844800 0.844800 1.359072
v 0.800000 0.800000 1.359072
v -0.800000 0.800000 1.359072
v 0.844800 -0.844800 1.647360
v 0.844800 0.844800 1.647360
v 0.800000 -0.800000 1.359072
v 0.844800 0.844800 1.359072
v 0.844800 -0.844800 -1.359072
v 0.844800 0.844800 -1.647360
v 0.844800 -0.844800 -1.647360
v -0.800000 0.800000 -1.359072
v -0.844800 -0.844800 -1.647360
v -0.844800 0.844800 -1.647360
v 0.800000 -0.800000 -1.359072
v -0.800000 -0.800000 -1.359072
v -0.844800 0.844800 -1.359072
v -0.844800 0.844800 1.647360
v 0.800000 0.800000 -1.359072
v -0.844800 -0.844800 1.647360
v -0.844800 -0.844800 1.359072
vt 0.247674 0.004961
vt 0.245485 0.173939
vt 0.241202 0.173899
vt 0.243004 0.000169
vt 0.500950 0.562807
vt 0.500950 0.451784
vt 0.758973 0.451784
vt 0.758973 0.562807
vt 0.500950 0.673829
vt 0.758973 0.673829
vt 0.140587 0.500378
vt 0.142579 0.768277
vt 0.132592 0.778246
vt 0.133730 0.500192
vt 0.247840 0.500377
vt 0.249831 0.768277
vt 0.239845 0.778245
vt 0.240983 0.500192
vt 0.072765 0.499888
vt 0.094707 0.500685
vt 0.062314 0.773776
vt 0.035663 0.739903
vt 0.085645 0.321929
vt 0.102728 0.321648
vt 0.077087 0.017459
vt 0.091032 0.000769
vt 0.105118 0.176063
vt 0.091397 0.177166
vt 0.192898 0.321929
vt 0.209980 0.321648
vt 0.201959 0.500685
vt 0.180018 0.499888
vt 0.198649 0.177165
vt 0.212371 0.176062
vt 0.169567 0.773775
vt 0.142916 0.739903
vt 0.500950 0.340761
vt 0.758973 0.340761
vt 0.500950 0.229739
vt 0.758973 0.229739
vt 0.184339 0.017459
vt 0.198285 0.000769
vt 0.244627 0.320080
vt 0.138232 0.173939
vt 0.142579 0.320147
vt 0.137374 0.320081
vt 0.133950 0.173899
vt 0.249831 0.320146
vt 0.135751 0.000169
vt 0.140421 0.004961
vt 0.759176 0.480344
vt 0.759176 0.355041
vt 0.972045 0.355041
vt 0.972045 0.480344
vt 0.759176 0.605647
vt 0.972045 0.605647
vt 0.759176 0.229739
vt 0.972045 0.229739
vt 0.972045 0.730949
vt 0.759176 0.730949
vn 0.0000 0.0000 -1.0000
vn -1.0000 0.0000 0.0000
vn 0.0000 -1.0000 0.0000
vn 0.0000 0.0000 1.0000
vn 0.0000 1.0000 0.0000
vn 1.0000 0.0000 0.0000
usemtl None
s off
f 15/1/1 11/2/1 32/3/1 13/4/1
f 8/5/2 7/6/2 5/7/2 6/8/2
f 4/9/3 8/5/3 6/8/3 2/10/3
f 27/11/4 23/12/4 28/13/4 10/14/4
f 14/15/1 15/16/1 13/17/1 19/18/1
f 3/19/1 24/20/1 25/21/1 4/22/1
f 7/23/1 22/24/1 24/20/1 3/19/1
f 4/25/1 25/26/1 21/27/1 8/28/1
f 8/28/1 21/27/1 22/24/1 7/23/1
f 5/29/4 16/30/4 17/31/4 6/32/4
f 1/33/4 31/34/4 16/30/4 5/29/4
f 6/32/4 17/31/4 29/35/4 2/36/4
f 7/6/5 3/37/5 1/38/5 5/7/5
f 3/37/6 4/39/6 2/40/6 1/38/6
f 2/41/4 29/42/4 31/34/4 1/33/4
f 32/3/3 12/43/3 16/30/3 31/34/3
f 30/44/4 26/45/4 20/46/4 9/47/4
f 12/43/6 19/18/6 17/31/6 16/30/6
f 19/18/5 13/17/5 29/35/5 17/31/5
f 11/2/1 18/48/1 12/43/1 32/3/1
f 22/24/6 21/27/6 9/47/6 20/46/6
f 21/27/5 25/26/5 28/49/5 9/47/5
f 26/45/4 27/11/4 10/14/4 20/46/4
f 23/50/4 30/44/4 9/47/4 28/49/4
f 26/51/6 30/52/6 14/53/6 18/54/6
f 24/20/3 22/24/3 20/46/3 10/14/3
f 27/55/3 26/51/3 18/54/3 11/56/3
f 18/48/1 14/15/1 19/18/1 12/43/1
f 31/34/2 29/42/2 13/4/2 32/3/2
f 30/52/5 23/57/5 15/58/5 14/53/5
f 11/56/2 15/59/2 23/60/2 27/55/2
f 10/14/2 28/13/2 25/21/2 24/20/2
