# Blender v2.81 (sub 16) OBJ File: 'Assets.blend'
# www.blender.org
mtllib VentCapSlots.mtl
o Vent_Cap_Slots_Cube.017
v 0.658829 -0.658829 1.772360
v 0.844800 -0.844800 1.647360
v 0.844800 0.844800 1.647360
v -0.844800 0.844800 1.647360
v -0.844800 -0.844800 1.647360
v 0.479686 0.844800 1.647360
v 0.159895 0.844800 1.647360
v -0.159895 0.844800 1.647360
v -0.479686 0.844800 1.647360
v -0.479686 -0.844800 1.647360
v -0.159895 -0.844800 1.647360
v 0.159895 -0.844800 1.647360
v 0.479686 -0.844800 1.647360
v 0.708829 0.708829 1.647360
v 0.708829 -0.708829 1.647360
v 0.429686 0.658829 1.772360
v 0.479686 -0.708829 1.647360
v 0.479686 0.708829 1.647360
v 0.109895 0.658829 1.772360
v 0.159895 -0.708829 1.647360
v 0.159895 0.708829 1.647360
v -0.209895 0.658829 1.772360
v -0.159895 -0.708829 1.647360
v -0.159895 0.708829 1.647360
v -0.529686 0.658829 1.772360
v -0.708829 -0.708829 1.647360
v -0.708829 0.708829 1.647360
v -0.479686 0.708829 1.647360
v -0.479686 -0.708829 1.647360
v -0.658829 -0.658829 1.772360
v 0.658829 0.658829 1.772360
v -0.658829 0.658829 1.772360
v -0.844800 -0.844800 1.897360
v -0.844800 0.844800 1.897360
v 0.844800 0.844800 1.897360
v 0.844800 -0.844800 1.897360
v 0.429686 -0.658829 1.772360
v 0.109895 -0.658829 1.772360
v -0.209895 -0.658829 1.772360
v -0.529686 -0.658829 1.772360
v -0.479686 0.844800 1.897360
v -0.159895 0.844800 1.897360
v 0.159895 0.844800 1.897360
v 0.479686 0.844800 1.897360
v 0.479686 -0.844800 1.897360
v 0.159895 -0.844800 1.897360
v -0.159895 -0.844800 1.897360
v -0.479686 -0.844800 1.897360
v -0.708829 0.708829 1.897360
v -0.708829 -0.708829 1.897360
v -0.429686 -0.658829 1.772360
v -0.429686 0.658829 1.772360
v -0.109895 -0.658829 1.772360
v -0.479686 -0.708829 1.897360
v -0.479686 0.708829 1.897360
v -0.109895 0.658829 1.772360
v 0.209895 -0.658829 1.772360
v -0.159895 -0.708829 1.897360
v -0.159895 0.708829 1.897360
v 0.209895 0.658829 1.772360
v 0.529686 -0.658829 1.772360
v 0.159895 -0.708829 1.897360
v 0.159895 0.708829 1.897360
v 0.529686 0.658829 1.772360
v 0.708829 -0.708829 1.897360
v 0.708829 0.708829 1.897360
v 0.479686 0.708829 1.897360
v 0.479686 -0.708829 1.897360
v -0.844800 0.844800 1.772360
v -0.844800 -0.844800 1.772360
v 0.159895 -0.844800 1.772360
v -0.479686 -0.844800 1.772360
v -0.479686 0.844800 1.772360
v 0.479686 0.844800 1.772360
v 0.844800 0.844800 1.772360
v 0.844800 -0.844800 1.772360
v -0.159895 -0.844800 1.772360
v 0.479686 -0.844800 1.772360
v 0.159895 0.844800 1.772360
v -0.159895 0.844800 1.772360
vt 0.972599 0.361858
vt 0.972599 0.097547
vt 0.947248 0.072197
vt 0.947248 0.387208
vt 0.876006 0.469365
vt 0.933520 0.438956
vt 0.862827 0.434889
vt 0.583161 0.032959
vt 0.525647 0.063368
vt 0.511919 0.115116
vt 0.596340 0.067435
vt 0.486568 0.140466
vt 0.486568 0.404777
vt 0.511919 0.430127
vt 0.280364 0.071030
vt 0.279514 0.038173
vt 0.193753 0.046898
vt 0.199529 0.079727
vt 0.845564 0.073573
vt 0.850836 0.042296
vt 0.765903 0.038173
vt 0.766753 0.071030
vt 0.609014 0.099225
vt 0.540100 0.131672
vt 0.534869 0.406608
vt 0.608330 0.460028
vt 0.613602 0.428751
vt 0.486210 0.361857
vt 0.486210 0.097547
vt 0.460859 0.072196
vt 0.460859 0.387208
vt 0.389618 0.469365
vt 0.447131 0.438955
vt 0.376438 0.434889
vt 0.919067 0.370652
vt 0.924298 0.095716
vt 0.206025 0.431295
vt 0.206875 0.464152
vt 0.292636 0.455427
vt 0.286860 0.422598
vt 0.773248 0.422597
vt 0.779024 0.455427
vt 0.850153 0.403099
vt 0.693263 0.464151
vt 0.692413 0.431294
vt 0.286153 0.777621
vt 0.323372 0.805912
vt 0.323662 0.698925
vt 0.290970 0.730730
vt 0.685918 0.079727
vt 0.680142 0.046897
vt 0.096771 0.032960
vt 0.039258 0.063369
vt 0.025530 0.115117
vt 0.109950 0.067436
vt 0.000179 0.140467
vt 0.000179 0.404778
vt 0.025530 0.430128
vt 0.921096 0.022969
vt 0.857039 0.006014
vt 0.765165 0.000179
vt 0.673316 0.009237
vt 0.538071 0.479355
vt 0.602127 0.496310
vt 0.694002 0.502145
vt 0.785851 0.493087
vt 0.613333 0.536536
vt 0.647213 0.505016
vt 0.324310 0.502504
vt 0.362813 0.529893
vt 0.325180 0.589427
vt 0.359060 0.557906
vt 0.609580 0.564549
vt 0.648083 0.591939
vt 0.362399 0.617717
vt 0.324890 0.696413
vt 0.357582 0.664608
vt 0.610574 0.670635
vt 0.647793 0.698925
vt 0.615391 0.623744
vt 0.362109 0.724703
vt 0.324600 0.803399
vt 0.357292 0.771594
vt 0.647503 0.805911
vt 0.610284 0.777621
vt 0.615101 0.730730
vt 0.361819 0.831690
vt 0.324310 0.910386
vt 0.357002 0.878581
vt 0.609994 0.884608
vt 0.647213 0.912898
vt 0.614812 0.837717
vt 0.359060 0.965788
vt 0.325180 0.997309
vt 0.648083 0.999821
vt 0.609580 0.972431
vt 0.613333 0.944418
vt 0.362813 0.937775
vt 0.278775 0.000179
vt 0.186926 0.009238
vt 0.207614 0.502146
vt 0.299463 0.493087
vt 0.037978 0.724703
vt 0.000759 0.696413
vt 0.000469 0.803400
vt 0.033161 0.771594
vt 0.434707 0.022969
vt 0.370650 0.006014
vt 0.364447 0.042296
vt 0.051682 0.479356
vt 0.115739 0.496311
vt 0.121942 0.460029
vt 0.289202 0.536536
vt 0.323082 0.505015
vt 0.000179 0.502504
vt 0.038682 0.529893
vt 0.001049 0.589427
vt 0.034929 0.557906
vt 0.285449 0.564549
vt 0.323952 0.591939
vt 0.038268 0.617717
vt 0.033451 0.664608
vt 0.286443 0.670635
vt 0.291260 0.623744
vt 0.037688 0.831690
vt 0.000179 0.910386
vt 0.032871 0.878581
vt 0.285863 0.884608
vt 0.323082 0.912898
vt 0.290681 0.837717
vt 0.034929 0.965789
vt 0.001049 0.997309
vt 0.323952 0.999821
vt 0.285449 0.972431
vt 0.289202 0.944418
vt 0.038682 0.937775
vt 0.127214 0.428751
vt 0.048481 0.406609
vt 0.359175 0.073573
vt 0.363765 0.403099
vt 0.053711 0.131672
vt 0.122624 0.099226
vt 0.432678 0.370652
vt 0.437909 0.095716
vn 0.0000 0.0000 -1.0000
vn 0.0000 1.0000 0.0000
vn -1.0000 0.0000 0.0000
vn 0.0000 -1.0000 -0.0000
vn 0.0000 0.0000 1.0000
vn 1.0000 0.0000 0.0000
vn 0.0000 -0.9285 0.3714
vn -0.9285 0.0000 -0.3714
vn 0.0000 0.9285 -0.3714
vn 0.0000 -0.9285 -0.3714
vn 0.9285 0.0000 -0.3714
vn 0.0000 0.9285 0.3714
vn 0.9285 0.0000 0.3714
vn -0.9285 0.0000 0.3714
usemtl None
s off
f 15/1/1 14/2/1 3/3/1 2/4/1
f 17/5/1 15/6/1 2/4/1 13/7/1
f 28/8/1 27/9/1 4/10/1 9/11/1
f 27/12/1 26/13/1 5/14/1 4/10/1
f 80/15/2 42/16/2 43/17/2 79/18/2
f 74/19/2 6/20/2 7/21/2 79/22/2
f 73/23/2 9/11/2 4/10/2 69/24/2
f 69/24/3 4/10/3 5/14/3 70/25/3
f 70/25/4 5/14/4 10/26/4 72/27/4
f 50/28/5 49/29/5 34/30/5 33/31/5
f 54/32/5 50/33/5 33/31/5 48/34/5
f 76/35/6 2/4/6 3/3/6 75/36/6
f 71/37/4 46/38/4 47/39/4 77/40/4
f 71/41/4 12/42/4 13/7/4 78/43/4
f 75/36/2 3/3/2 6/20/2 74/19/2
f 72/27/4 10/26/4 11/44/4 77/45/4
f 19/46/7 63/47/7 59/48/7 56/49/7
f 80/50/2 8/51/2 9/11/2 73/23/2
f 67/52/5 66/53/5 35/54/5 44/55/5
f 66/56/5 65/57/5 36/58/5 35/54/5
f 14/59/1 18/60/1 6/20/1 3/3/1
f 18/60/1 21/61/1 7/21/1 6/20/1
f 24/62/1 28/8/1 9/11/1 8/51/1
f 26/63/1 29/64/1 10/26/1 5/14/1
f 29/64/1 23/65/1 11/44/1 10/26/1
f 21/61/1 24/62/1 8/51/1 7/21/1
f 20/66/1 17/5/1 13/7/1 12/42/1
f 31/67/8 14/68/8 15/69/8 1/70/8
f 1/70/9 15/69/9 17/71/9 61/72/9
f 64/73/10 18/74/10 14/68/10 31/67/10
f 61/72/11 17/71/11 18/74/11 64/73/11
f 37/75/9 17/71/9 20/76/9 57/77/9
f 60/78/10 21/79/10 18/74/10 16/80/10
f 57/77/11 20/76/11 21/79/11 60/78/11
f 16/80/8 18/74/8 17/71/8 37/75/8
f 23/65/1 20/66/1 12/42/1 11/44/1
f 38/81/9 20/76/9 23/82/9 53/83/9
f 53/83/11 23/82/11 24/84/11 56/85/11
f 19/86/8 21/79/8 20/76/8 38/81/8
f 39/87/9 23/82/9 29/88/9 51/89/9
f 52/90/10 28/91/10 24/84/10 22/92/10
f 51/89/11 29/88/11 28/91/11 52/90/11
f 22/92/8 24/84/8 23/82/8 39/87/8
f 30/93/11 26/94/11 27/95/11 32/96/11
f 32/96/10 27/95/10 28/91/10 25/97/10
f 40/98/9 29/88/9 26/94/9 30/93/9
f 25/97/8 28/91/8 29/88/8 40/98/8
f 43/17/5 42/16/5 59/99/5 63/100/5
f 47/39/5 46/38/5 62/101/5 58/102/5
f 53/103/12 58/104/12 62/105/12 38/106/12
f 49/107/5 55/108/5 41/109/5 34/30/5
f 55/108/5 59/99/5 42/16/5 41/109/5
f 63/100/5 67/52/5 44/55/5 43/17/5
f 65/110/5 68/111/5 45/112/5 36/58/5
f 68/111/5 62/101/5 46/38/5 45/112/5
f 58/102/5 54/32/5 48/34/5 47/39/5
f 32/113/13 49/114/13 50/115/13 30/116/13
f 30/116/12 50/115/12 54/117/12 40/118/12
f 25/119/7 55/120/7 49/114/7 32/113/7
f 40/118/14 54/117/14 55/120/14 25/119/14
f 51/121/12 54/117/12 58/104/12 39/122/12
f 22/123/7 59/48/7 55/120/7 52/124/7
f 39/122/14 58/104/14 59/48/14 22/123/14
f 52/124/13 55/120/13 54/117/13 51/121/13
f 38/106/14 62/105/14 63/47/14 19/46/14
f 56/49/13 59/48/13 58/104/13 53/103/13
f 57/125/12 62/105/12 68/126/12 37/127/12
f 16/128/7 67/129/7 63/47/7 60/130/7
f 37/127/14 68/126/14 67/129/14 16/128/14
f 60/130/13 63/47/13 62/105/13 57/125/13
f 1/131/14 65/132/14 66/133/14 31/134/14
f 31/134/7 66/133/7 67/129/7 64/135/7
f 61/136/12 68/126/12 65/132/12 1/131/12
f 64/135/13 67/129/13 68/126/13 61/136/13
f 56/85/10 24/84/10 21/79/10 19/86/10
f 78/43/4 13/7/4 2/4/4 76/35/4
f 45/112/4 78/137/4 76/138/4 36/58/4
f 42/16/2 80/15/2 73/139/2 41/109/2
f 48/34/4 72/140/4 77/40/4 47/39/4
f 35/54/2 75/141/2 74/142/2 44/55/2
f 46/38/4 71/37/4 78/137/4 45/112/4
f 12/42/4 71/41/4 77/45/4 11/44/4
f 36/58/6 76/138/6 75/141/6 35/54/6
f 33/31/4 70/143/4 72/140/4 48/34/4
f 34/30/3 69/144/3 70/143/3 33/31/3
f 41/109/2 73/139/2 69/144/2 34/30/2
f 44/55/2 74/142/2 79/18/2 43/17/2
f 8/51/2 80/50/2 79/22/2 7/21/2
