# Blender v2.81 (sub 16) OBJ File: 'Assets.blend'
# www.blender.org
mtllib VentCapClosed.mtl
o Vent_Cap_Closed_Cube.016
v 0.844800 -0.844800 1.647360
v 0.844800 0.844800 1.647360
v -0.844800 0.844800 1.647360
v -0.844800 -0.844800 1.647360
v 0.844800 -0.844800 1.847360
v 0.844800 0.844800 1.847360
v -0.844800 0.844800 1.847360
v -0.844800 -0.844800 1.847360
vt 0.050067 0.727649
vt 0.452378 0.727649
vt 0.452378 0.325338
vt 0.050067 0.325338
vt 0.902311 0.775272
vt 0.902311 0.727649
vt 0.500000 0.727649
vt 0.500000 0.775271
vt 0.949933 0.325338
vt 0.902311 0.325338
vt 0.949933 0.727649
vt 0.500000 0.277716
vt 0.500000 0.325338
vt 0.902311 0.277716
vn 0.0000 0.0000 -1.0000
vn 1.0000 0.0000 0.0000
vn 0.0000 1.0000 0.0000
vn -1.0000 0.0000 0.0000
vn 0.0000 -1.0000 0.0000
vn 0.0000 0.0000 1.0000
usemtl None
s off
f 2/1/1 1/2/1 4/3/1 3/4/1
f 2/5/2 6/6/2 5/7/2 1/8/2
f 3/9/3 7/10/3 6/6/3 2/11/3
f 4/12/4 8/13/4 7/10/4 3/14/4
f 1/2/5 5/7/5 8/13/5 4/3/5
f 6/6/6 7/10/6 8/13/6 5/7/6
