# Blender v2.81 (sub 16) OBJ File: 'Assets.blend'
# www.blender.org
mtllib Wrench.mtl
o Wrench_Cube.004
v -0.214318 0.012125 -0.010651
v -0.214318 0.012125 0.026373
v 0.114504 0.012125 -0.006927
v 0.114504 0.012125 0.022649
v -0.227094 0.012125 0.039148
v -0.227094 0.012125 -0.023427
v 0.127279 0.012125 -0.017133
v -0.214318 0.006874 0.026373
v -0.214318 0.006874 -0.010651
v 0.114504 0.006874 0.022649
v 0.114504 0.006874 -0.006927
v -0.254094 0.012079 0.034795
v -0.235049 0.012079 0.026906
v -0.227160 0.012079 0.007861
v -0.235049 0.012079 -0.011185
v -0.254094 0.012079 -0.019073
v -0.273140 0.012079 -0.011185
v -0.281029 0.012079 0.007861
v -0.273140 0.012079 0.026906
v 0.127279 0.012125 0.007861
v -0.214318 0.012125 0.007861
v 0.114504 0.012125 0.007861
v -0.214318 0.006874 0.007861
v 0.114504 0.006874 0.007861
v 0.127279 0.012125 0.032855
v -0.254644 0.012079 0.044293
v -0.254644 0.012079 -0.028571
v -0.280405 0.012079 -0.017900
v -0.291076 0.012079 0.007861
v -0.280405 0.012079 0.033622
v -0.168760 0.012125 -0.008579
v -0.177996 0.012125 0.035647
v -0.168760 0.012125 0.024301
v -0.168760 0.006874 0.024301
v -0.168760 0.006874 0.007861
v -0.177996 0.012125 -0.019925
v -0.168760 0.006874 -0.008579
v 0.147869 0.012125 -0.021393
v 0.168103 0.012125 -0.031333
v 0.192715 0.012125 0.005231
v 0.166042 0.012125 0.044681
v 0.147159 0.012125 0.037179
v 0.160470 0.012125 0.006546
v 0.183722 0.012125 0.053686
v 0.177066 0.012125 0.005888
v 0.143875 0.012125 0.007203
v 0.248695 0.012125 -0.088952
v 0.227489 0.012125 0.004721
v 0.335779 0.012125 0.004109
v 0.276785 0.012125 -0.011232
v 0.324950 0.012125 -0.043763
v 0.303671 0.012125 -0.074944
v 0.204257 0.012125 0.066551
v 0.216383 0.012125 0.010039
v 0.276467 0.012125 0.047891
v 0.311351 0.012125 0.036069
v 0.263867 0.012125 0.023054
v 0.247106 0.012125 0.054273
v 0.225764 0.012125 0.059735
v 0.239805 0.012125 0.016459
v 0.195635 0.017154 0.005188
v 0.192715 0.012125 0.059898
v 0.195635 0.017154 0.058765
v 0.195635 0.017154 -0.049056
v 0.192715 0.012125 -0.049792
v 0.247956 0.017154 -0.085688
v 0.224345 0.017154 0.005227
v 0.207351 0.017154 0.071580
v 0.208840 0.012125 0.077536
v 0.275138 0.017154 -0.083832
v 0.276227 0.012125 -0.087051
v 0.252465 0.012125 -0.016808
v 0.253486 0.017154 -0.019825
v 0.332611 0.017154 -0.010400
v 0.335556 0.012125 -0.008984
v 0.332788 0.017154 0.000003
v 0.278019 0.017154 -0.014158
v 0.302350 0.017154 -0.071813
v 0.302846 0.017154 -0.008440
v 0.301105 0.012125 -0.005657
v 0.323275 0.017154 -0.041086
v -0.214318 -0.012125 -0.010651
v -0.214318 -0.012125 0.026373
v 0.114504 -0.012125 -0.006927
v 0.114504 -0.012125 0.022649
v -0.227094 -0.012125 0.039148
v -0.227094 -0.012125 -0.023427
v 0.127279 -0.012125 -0.017133
v -0.214318 -0.006874 0.026373
v -0.214318 -0.006874 -0.010651
v 0.114504 -0.006874 0.022649
v 0.114504 -0.006874 -0.006927
v -0.254094 -0.012079 0.034795
v -0.235049 -0.012079 0.026906
v -0.227160 -0.012079 0.007861
v -0.235049 -0.012079 -0.011185
v -0.254094 -0.012079 -0.019073
v -0.273140 -0.012079 -0.011185
v -0.281029 -0.012079 0.007861
v -0.273140 -0.012079 0.026906
v 0.127279 -0.012125 0.007861
v -0.214318 -0.012125 0.007861
v 0.114504 -0.012125 0.007861
v -0.214318 -0.006874 0.007861
v 0.114504 -0.006874 0.007861
v 0.127279 -0.012125 0.032855
v -0.254644 -0.012079 0.044293
v -0.254644 -0.012079 -0.028571
v -0.280405 -0.012079 -0.017900
v -0.291076 -0.012079 0.007861
v -0.280405 -0.012079 0.033622
v -0.168760 -0.012125 -0.008579
v -0.177996 -0.012125 0.035647
v -0.168760 -0.012125 0.024301
v -0.168760 -0.006874 0.024301
v -0.168760 -0.006874 0.007861
v -0.177996 -0.012125 -0.019925
v -0.168760 -0.006874 -0.008579
v 0.147869 -0.012125 -0.021393
v 0.168103 -0.012125 -0.031333
v 0.192715 -0.012125 0.005231
v 0.166042 -0.012125 0.044681
v 0.147159 -0.012125 0.037179
v 0.160470 -0.012125 0.006546
v 0.183722 -0.012125 0.053686
v 0.177066 -0.012125 0.005888
v 0.143875 -0.012125 0.007203
v -0.227094 0.000000 -0.023427
v -0.227094 0.000000 0.039148
v 0.127279 0.000000 -0.017133
v -0.254644 0.000000 0.044293
v -0.254644 0.000000 -0.028571
v -0.280405 0.000000 -0.017900
v -0.291076 0.000000 0.007861
v -0.280405 0.000000 0.033622
v -0.177996 0.000000 0.035647
v -0.177996 0.000000 -0.019925
v 0.127279 0.000000 0.032855
v 0.147869 0.000000 -0.021393
v 0.168103 0.000000 -0.031333
v 0.287022 0.000000 0.004521
v 0.166042 0.000000 0.044681
v 0.147159 0.000000 0.037179
v 0.192715 0.000000 0.005231
v 0.183722 0.000000 0.053686
v 0.248695 -0.012125 -0.088952
v 0.227489 -0.012125 0.004721
v 0.335779 -0.012125 0.004109
v 0.276785 -0.012125 -0.011232
v 0.324950 -0.012125 -0.043763
v 0.303671 -0.012125 -0.074944
v 0.192715 0.000000 0.059898
v 0.192715 0.000000 -0.049792
v 0.248695 0.000000 -0.088952
v 0.208840 0.000000 0.077536
v 0.227489 0.000000 0.004721
v 0.276227 0.000000 -0.087051
v 0.252465 0.000000 -0.016808
v 0.335556 0.000000 -0.008984
v 0.335779 0.000000 0.004109
v 0.303671 0.000000 -0.074944
v 0.324950 0.000000 -0.043763
v 0.276785 0.000000 -0.011232
v 0.301105 0.000000 -0.005657
v 0.204257 -0.012125 0.066551
v 0.216383 -0.012125 0.010039
v 0.276467 -0.012125 0.047891
v 0.311351 -0.012125 0.036069
v 0.204257 0.000000 0.066551
v 0.216383 0.000000 0.010039
v 0.311351 0.000000 0.036069
v 0.276467 0.000000 0.047891
v 0.263867 -0.012125 0.023054
v 0.247106 -0.012125 0.054273
v 0.247106 0.000000 0.054273
v 0.263867 0.000000 0.023054
v 0.225764 -0.012125 0.059735
v 0.225764 0.000000 0.059735
v 0.239805 -0.012125 0.016459
v 0.239805 0.000000 0.016459
v 0.195635 -0.017154 0.005188
v 0.192715 -0.012125 0.059898
v 0.195635 -0.017154 0.058765
v 0.195635 -0.017154 -0.049056
v 0.192715 -0.012125 -0.049792
v 0.247956 -0.017154 -0.085688
v 0.224345 -0.017154 0.005227
v 0.207351 -0.017154 0.071580
v 0.208840 -0.012125 0.077536
v 0.275138 -0.017154 -0.083832
v 0.276227 -0.012125 -0.087051
v 0.252465 -0.012125 -0.016808
v 0.253486 -0.017154 -0.019825
v 0.332611 -0.017154 -0.010400
v 0.335556 -0.012125 -0.008984
v 0.332788 -0.017154 0.000003
v 0.278019 -0.017154 -0.014158
v 0.302350 -0.017154 -0.071813
v 0.302846 -0.017154 -0.008440
v 0.301105 -0.012125 -0.005657
v 0.323275 -0.017154 -0.041086
v -0.254094 0.000000 0.034795
v -0.235049 0.000000 0.026906
v -0.227160 0.000000 0.007861
v -0.235049 0.000000 -0.011185
v -0.254094 0.000000 -0.019073
v -0.273140 0.000000 -0.011185
v -0.281029 0.000000 0.007861
v -0.273140 0.000000 0.026906
vt 0.825182 0.166185
vt 0.271529 0.174978
vt 0.271961 0.163468
vt 0.814781 0.155972
vt 0.831895 0.129440
vt 0.820557 0.129397
vt 0.167948 0.124536
vt 0.172224 0.164483
vt 0.141679 0.190299
vt 0.145515 0.123941
vt 0.269597 0.073939
vt 0.175096 0.080575
vt 0.144880 0.053799
vt 0.253070 0.055367
vt 0.826414 0.095756
vt 0.856206 0.075050
vt 0.856341 0.130032
vt 0.185271 0.090138
vt 0.179063 0.124721
vt 0.999784 0.248806
vt 0.962478 0.135147
vt 0.994944 0.136443
vt 0.180954 0.154946
vt 0.855310 0.187342
vt 0.817894 0.105094
vt 0.271838 0.124101
vt 0.270164 0.084926
vt 0.045043 0.125270
vt 0.057347 0.158072
vt 0.044987 0.168615
vt 0.026867 0.125539
vt 0.079479 0.214782
vt 0.087238 0.189969
vt 0.141392 0.218084
vt 0.126992 0.161454
vt 0.129796 0.082557
vt 0.056502 0.091722
vt 0.043474 0.081486
vt 0.089587 0.174577
vt 0.088723 0.072556
vt 0.085376 0.056555
vt 0.253604 0.193534
vt 0.852555 0.212195
vt 0.901426 0.196136
vt 0.894207 0.220626
vt 0.946765 0.215469
vt 0.935803 0.237505
vt 0.987511 0.268652
vt 0.968089 0.011032
vt 0.980066 0.033609
vt 0.941317 0.051916
vt 0.931510 0.028562
vt 0.899888 0.066829
vt 0.892966 0.042505
vt 0.892196 0.132155
vt 0.927575 0.133785
vt 0.987785 0.000216
vt 0.999784 0.022066
vt 0.853639 0.050718
vt 0.253835 0.030471
vt 0.143478 0.025583
vt 0.077909 0.032827
vt 0.024549 0.063917
vt 0.000216 0.124002
vt 0.024321 0.184758
vt 0.253281 0.218758
vt 0.713024 0.645690
vt 0.713024 0.537952
vt 0.736919 0.537952
vt 0.736919 0.645690
vt 0.736919 0.754127
vt 0.713024 0.754127
vt 0.248079 0.747312
vt 0.270635 0.745278
vt 0.280669 0.867875
vt 0.259537 0.874404
vt 0.453580 0.722981
vt 0.428393 0.719193
vt 0.470248 0.583115
vt 0.495509 0.573373
vt 0.428729 0.568134
vt 0.444205 0.537952
vt 0.289650 0.862605
vt 0.416991 0.712184
vt 0.410791 0.803036
vt 0.311360 0.901135
vt 0.303310 0.908119
vt 0.285069 0.921992
vt 0.469329 0.983338
vt 0.459916 0.961315
vt 0.475851 0.951503
vt 0.495509 0.965488
vt 0.405323 0.953274
vt 0.454408 0.904396
vt 0.467626 0.948244
vt 0.454722 0.952629
vt 0.397680 0.985423
vt 0.401188 0.962635
vt 0.340804 0.942781
vt 0.328742 0.962016
vt 0.445632 0.850631
vt 0.470187 0.841364
vt 0.489410 0.892488
vt 0.464462 0.898988
vt 0.423642 0.796906
vt 0.451591 0.791635
vt 0.281877 0.750428
vt 0.359646 0.665449
vt 0.347447 0.934769
vt 0.434583 0.856397
vt 0.432047 0.582704
vt 0.458909 0.588391
vt 0.712592 0.679507
vt 0.694505 0.656225
vt 0.687569 0.583091
vt 0.712592 0.568672
vt 0.594189 0.537952
vt 0.594946 0.564254
vt 0.523856 0.575948
vt 0.495942 0.559345
vt 0.554320 0.610815
vt 0.533623 0.632294
vt 0.652568 0.687498
vt 0.654978 0.658894
vt 0.648457 0.569634
vt 0.611971 0.643722
vt 0.600118 0.670681
vt 0.656549 0.540374
vt 0.349755 0.656582
vt 0.091549 0.093123
vt 0.071122 0.103243
vt 0.123938 0.122921
vt 0.113455 0.101127
vt 0.062723 0.124376
vt 0.069943 0.145474
vt 0.089856 0.155745
vt 0.113503 0.146678
vt 0.825181 0.435055
vt 0.814778 0.424840
vt 0.271961 0.432343
vt 0.271529 0.443851
vt 0.831893 0.398309
vt 0.820555 0.398265
vt 0.167949 0.393411
vt 0.145516 0.392817
vt 0.141681 0.459175
vt 0.172226 0.433359
vt 0.269598 0.342811
vt 0.253071 0.324239
vt 0.144879 0.322675
vt 0.175095 0.349450
vt 0.826411 0.364627
vt 0.856204 0.343919
vt 0.856339 0.398900
vt 0.179063 0.393596
vt 0.185270 0.359013
vt 0.999781 0.517674
vt 0.994941 0.405312
vt 0.962476 0.404015
vt 0.180956 0.423822
vt 0.855309 0.456211
vt 0.817892 0.373963
vt 0.270166 0.353800
vt 0.271839 0.392975
vt 0.045043 0.394149
vt 0.026868 0.394418
vt 0.044989 0.437493
vt 0.057348 0.426950
vt 0.079481 0.483659
vt 0.141395 0.486960
vt 0.087240 0.458847
vt 0.126993 0.430330
vt 0.129795 0.351433
vt 0.056501 0.360600
vt 0.043473 0.350365
vt 0.089588 0.443455
vt 0.088721 0.341433
vt 0.085374 0.325432
vt 0.253605 0.462407
vt 0.852553 0.481063
vt 0.894205 0.489494
vt 0.901424 0.465004
vt 0.935801 0.506373
vt 0.946763 0.484337
vt 0.987509 0.537520
vt 0.968087 0.279900
vt 0.931508 0.297430
vt 0.941315 0.320784
vt 0.980064 0.302477
vt 0.892963 0.311373
vt 0.899886 0.335697
vt 0.892194 0.401023
vt 0.927572 0.402653
vt 0.987783 0.269085
vt 0.999781 0.290934
vt 0.853636 0.319586
vt 0.253836 0.299344
vt 0.143476 0.294458
vt 0.077906 0.301704
vt 0.024548 0.332795
vt 0.000216 0.392882
vt 0.024322 0.453637
vt 0.253282 0.487632
vt 0.760814 0.645690
vt 0.760814 0.537952
vt 0.760814 0.754127
vt 0.000216 0.776064
vt 0.011674 0.648971
vt 0.032806 0.655501
vt 0.022772 0.778097
vt 0.205717 0.800394
vt 0.247646 0.950002
vt 0.222386 0.940260
vt 0.180530 0.804182
vt 0.196342 0.985423
vt 0.180866 0.955241
vt 0.041787 0.660770
vt 0.063497 0.622240
vt 0.162928 0.720339
vt 0.169128 0.811191
vt 0.037207 0.601383
vt 0.055447 0.615256
vt 0.221467 0.540038
vt 0.247646 0.557887
vt 0.227988 0.571873
vt 0.212053 0.562060
vt 0.157460 0.570101
vt 0.206859 0.570746
vt 0.219763 0.575131
vt 0.206545 0.618980
vt 0.149817 0.537952
vt 0.153325 0.560740
vt 0.080880 0.561359
vt 0.092941 0.580595
vt 0.197769 0.672744
vt 0.216599 0.624387
vt 0.241547 0.630888
vt 0.222324 0.682011
vt 0.175779 0.726469
vt 0.203728 0.731740
vt 0.111784 0.857926
vt 0.034014 0.772948
vt 0.099584 0.588606
vt 0.186721 0.666978
vt 0.211046 0.934985
vt 0.184183 0.940672
vt 0.712591 0.695922
vt 0.712591 0.806757
vt 0.687569 0.792337
vt 0.694505 0.719203
vt 0.594189 0.837476
vt 0.495942 0.816083
vt 0.523856 0.799480
vt 0.594946 0.811174
vt 0.533623 0.743134
vt 0.554320 0.764614
vt 0.652568 0.687930
vt 0.654978 0.716534
vt 0.648456 0.805794
vt 0.611971 0.731706
vt 0.600118 0.704747
vt 0.656549 0.835054
vt 0.101892 0.866793
vt 0.071122 0.372121
vt 0.091549 0.362000
vt 0.113455 0.370004
vt 0.123939 0.391797
vt 0.062724 0.393254
vt 0.069944 0.414352
vt 0.089857 0.424622
vt 0.113504 0.415554
vn -0.0058 0.0000 1.0000
vn -0.0256 0.0000 0.9997
vn -1.0000 -0.0000 0.0000
vn -0.0022 1.0000 0.0000
vn -0.0011 1.0000 0.0005
vn -0.0017 1.0000 0.0011
vn -0.0025 1.0000 0.0000
vn -0.0000 1.0000 -0.0000
vn -0.0011 1.0000 -0.0005
vn -0.0017 1.0000 -0.0011
vn 1.0000 0.0000 0.0000
vn -0.0454 0.0000 0.9990
vn 0.1835 -0.0000 -0.9830
vn 0.1275 0.0000 -0.9918
vn -0.0026 1.0000 0.0015
vn -0.0026 1.0000 -0.0015
vn -0.0007 1.0000 0.0008
vn -0.0007 1.0000 -0.0008
vn -0.0454 0.0000 -0.9990
vn -0.0256 0.0000 -0.9997
vn -0.0058 0.0000 -1.0000
vn -0.0973 0.0000 -0.9953
vn -0.3243 0.0000 -0.9459
vn -0.5227 0.0000 -0.8525
vn -0.6000 0.0000 -0.8000
vn -0.5123 0.0000 0.8588
vn -0.4120 -0.0000 0.9112
vn -0.2919 -0.0000 0.9565
vn -0.5684 -0.0000 0.8228
vn -0.1023 -0.0000 0.9947
vn 0.0402 -0.0000 0.9992
vn 0.1275 0.0000 0.9918
vn 0.1835 0.0000 0.9830
vn -0.3827 0.0000 0.9239
vn -0.9239 0.0000 0.3827
vn -0.9239 -0.0000 -0.3827
vn -0.3827 -0.0000 -0.9239
vn 0.0402 -0.0000 -0.9992
vn -0.5732 0.0000 -0.8194
vn -0.5635 0.1841 -0.8054
vn -0.5642 0.1772 -0.8064
vn 0.9687 0.0000 0.2481
vn -0.7380 0.0000 0.6748
vn 0.0689 -0.0000 -0.9976
vn 0.2398 -0.0000 -0.9708
vn 0.9878 -0.0000 -0.1559
vn 0.9604 0.2412 -0.1397
vn 0.9999 -0.0000 -0.0170
vn 0.9016 -0.0000 -0.4326
vn 0.8705 0.2389 -0.4304
vn 0.4036 -0.0000 -0.9149
vn 0.8260 0.0000 -0.5637
vn 0.6619 0.3657 -0.6544
vn -0.2234 -0.0000 0.9747
vn -0.2474 0.0000 0.9689
vn 0.6422 0.1779 0.7456
vn 0.6529 -0.0000 0.7575
vn 0.6422 0.1781 0.7456
vn -0.2711 0.0000 0.9625
vn -0.9777 0.0000 -0.2098
vn 0.2643 0.0000 -0.9644
vn 0.3210 0.0000 0.9471
vn 0.2671 0.0000 0.9637
vn 0.2751 0.0000 0.9614
vn 0.3021 0.0000 0.9533
vn 0.2302 0.0000 0.9731
vn -0.8648 0.5021 0.0000
vn -0.5228 0.4105 -0.7471
vn 0.8377 0.5021 0.2146
vn 0.0573 0.5482 -0.8344
vn 0.1942 0.5593 -0.8059
vn 0.2025 0.5597 -0.8036
vn 0.6201 0.3108 0.7204
vn 0.8712 0.4628 -0.1640
vn 0.8647 0.5021 -0.0147
vn -0.1902 0.5285 0.8274
vn -0.1901 0.5307 0.8260
vn -0.1902 0.5287 0.8272
vn 0.5595 0.5398 -0.6289
vn -0.2299 0.5303 0.8160
vn -0.2123 0.5288 0.8218
vn -0.2081 0.5284 0.8231
vn 0.8109 0.4615 -0.3598
vn -0.6382 0.5021 0.5835
vn 0.3827 0.0000 -0.9239
vn 0.9239 0.0000 -0.3827
vn 0.9239 0.0000 0.3827
vn 0.3827 0.0000 0.9239
vn -0.0022 -1.0000 0.0000
vn -0.0025 -1.0000 0.0000
vn -0.0017 -1.0000 0.0011
vn -0.0011 -1.0000 0.0005
vn -0.0000 -1.0000 -0.0000
vn -0.0017 -1.0000 -0.0011
vn -0.0011 -1.0000 -0.0005
vn -0.0026 -1.0000 0.0015
vn -0.0026 -1.0000 -0.0015
vn -0.0007 -1.0000 0.0008
vn -0.0007 -1.0000 -0.0008
vn -0.5642 -0.1772 -0.8064
vn -0.5635 -0.1841 -0.8054
vn 0.9604 -0.2412 -0.1397
vn 0.8705 -0.2389 -0.4304
vn 0.6619 -0.3657 -0.6544
vn 0.6422 -0.1779 0.7456
vn 0.6422 -0.1781 0.7456
vn -0.8648 -0.5021 0.0000
vn -0.5228 -0.4105 -0.7471
vn 0.8377 -0.5021 0.2146
vn 0.0573 -0.5482 -0.8344
vn 0.2025 -0.5597 -0.8036
vn 0.1942 -0.5593 -0.8059
vn 0.6201 -0.3108 0.7204
vn 0.8712 -0.4628 -0.1640
vn 0.8647 -0.5021 -0.0147
vn -0.1902 -0.5285 0.8274
vn -0.1902 -0.5287 0.8272
vn -0.1901 -0.5307 0.8260
vn 0.5595 -0.5398 -0.6289
vn -0.2299 -0.5303 0.8160
vn -0.2081 -0.5284 0.8231
vn -0.2123 -0.5288 0.8218
vn 0.8109 -0.4615 -0.3598
vn -0.6382 -0.5021 0.5835
usemtl None
s 1
f 3/1/1 31/2/2 37/3/2 11/4/1
f 22/5/3 3/1/3 11/4/3 24/6/3
f 21/7/4 1/8/5 6/9/6 14/10/7
f 33/11/8 2/12/9 5/13/10 32/14/8
f 4/15/8 33/11/8 32/14/8 25/16/8
f 22/5/8 4/15/8 25/16/8 20/17/8
f 21/7/11 2/12/11 8/18/11 23/19/11
f 65/20/8 45/21/8 40/22/8
f 31/2/2 1/8/12 9/23/12 37/3/2
f 3/1/8 22/5/8 20/17/8 7/24/8
f 10/25/8 24/6/8 35/26/8 34/27/8
f 4/15/3 22/5/3 24/6/3 10/25/3
f 1/8/11 21/7/11 23/19/11 9/23/11
f 2/12/9 21/7/4 14/10/7 5/13/10
f 18/28/8 17/29/8 28/30/8 29/31/8
f 132/32/13 27/33/13 6/9/14 128/34/14
f 15/35/15 14/10/7 6/9/6
f 14/10/7 13/36/16 5/13/10
f 19/37/8 18/28/8 29/31/8 30/38/8
f 17/29/8 16/39/17 27/33/17 28/30/8
f 12/40/18 19/37/8 30/38/8 26/41/18
f 27/33/17 16/39/17 15/35/15 6/9/6
f 12/40/18 26/41/18 5/13/10 13/36/16
f 2/12/19 33/11/20 34/27/20 8/18/19
f 1/8/5 31/2/8 36/42/8 6/9/6
f 23/19/8 35/26/8 37/3/8 9/23/8
f 35/26/8 24/6/8 11/4/8 37/3/8
f 31/2/8 3/1/8 7/24/8 36/42/8
f 33/11/20 4/15/21 10/25/21 34/27/20
f 8/18/8 34/27/8 35/26/8 23/19/8
f 130/43/22 7/24/22 38/44/23 139/45/23
f 139/45/23 38/44/23 39/46/24 140/47/24
f 140/47/24 39/46/24 65/20/25 153/48/25
f 145/49/26 44/50/26 41/51/27 142/52/27
f 142/52/27 41/51/27 42/53/28 143/54/28
f 20/17/8 46/55/8 38/44/8 7/24/8
f 39/46/8 38/44/8 46/55/8 43/56/8
f 65/20/8 39/46/8 43/56/8 45/21/8
f 20/17/8 25/16/8 42/53/8 46/55/8
f 46/55/8 42/53/8 41/51/8 43/56/8
f 152/57/29 62/58/29 44/50/26 145/49/26
f 44/50/8 45/21/8 43/56/8 41/51/8
f 62/58/8 40/22/8 45/21/8 44/50/8
f 25/16/30 138/59/30 143/54/28 42/53/28
f 32/14/31 136/60/31 138/59/30 25/16/30
f 5/13/32 129/61/32 136/60/31 32/14/31
f 26/41/33 131/62/33 129/61/32 5/13/32
f 30/38/34 135/63/34 131/62/34 26/41/34
f 29/31/35 134/64/35 135/63/35 30/38/35
f 28/30/36 133/65/36 134/64/36 29/31/36
f 27/33/37 132/32/37 133/65/37 28/30/37
f 7/24/22 130/43/22 137/66/38 36/42/38
f 36/42/38 137/66/38 128/34/14 6/9/14
f 40/67/11 62/68/11 152/69/11 144/70/11
f 144/70/11 153/71/11 65/72/11 40/67/11
f 153/73/39 65/74/40 47/75/41 154/76/39
f 156/77/42 48/78/42 69/79/42 155/80/42
f 155/80/43 69/79/43 62/81/43 152/82/43
f 66/83/8 67/84/8 73/85/8 70/86/8
f 154/76/44 47/75/44 71/87/45 157/88/45
f 159/89/46 75/90/47 49/91/48 160/92/48
f 81/93/8 79/94/8 76/95/8 74/96/8
f 162/97/49 51/98/50 75/90/47 159/89/46
f 157/88/45 71/87/45 52/99/51 161/100/51
f 161/100/52 52/99/53 51/98/50 162/97/49
f 50/101/54 163/102/54 164/103/55 80/104/55
f 72/105/54 158/106/54 163/102/54 50/101/54
f 48/78/56 156/77/57 158/106/57 72/105/58
f 80/104/55 164/103/55 160/92/59 49/91/59
f 66/83/8 64/107/8 61/108/8 67/84/8
f 78/109/8 77/110/8 79/94/8 81/93/8
f 67/84/8 61/108/8 63/111/8 68/112/8
f 70/86/8 73/85/8 77/110/8 78/109/8
f 169/113/60 53/114/60 54/115/60 170/116/60
f 176/117/61 57/118/61 56/119/61 171/120/61
f 171/120/62 56/119/62 55/121/63 172/122/63
f 178/123/64 59/124/64 53/114/65 169/113/65
f 60/125/8 54/115/8 53/114/8 59/124/8
f 56/119/8 57/118/8 58/126/8 55/121/8
f 172/122/63 55/121/63 58/126/66 175/127/66
f 180/128/61 60/125/61 57/118/61 176/117/61
f 170/116/61 54/115/61 60/125/61 180/128/61
f 57/118/8 60/125/8 59/124/8 58/126/8
f 175/127/66 58/126/66 59/124/64 178/123/64
f 40/129/67 62/81/67 63/111/67 61/108/67
f 64/107/68 66/83/68 47/75/41 65/74/40
f 67/84/69 68/112/69 69/79/69 48/78/69
f 66/83/70 70/86/71 71/87/72 47/75/70
f 48/78/56 72/105/58 73/85/73 67/84/73
f 74/96/74 76/95/75 49/91/75 75/90/47
f 77/110/76 73/85/77 72/105/77 50/101/78
f 52/99/53 71/87/72 70/86/71 78/109/79
f 76/95/80 79/94/81 80/104/82 49/91/80
f 79/94/81 77/110/76 50/101/78 80/104/82
f 75/90/47 51/98/50 81/93/83 74/96/74
f 51/98/50 52/99/53 78/109/79 81/93/83
f 68/112/84 63/111/84 62/81/84 69/79/84
f 65/74/67 40/129/67 61/108/67 64/107/67
f 19/37/85 12/40/85 202/130/85 209/131/85
f 14/10/36 204/132/36 203/133/36 13/36/36
f 18/28/86 19/37/86 209/131/86 208/134/86
f 12/40/37 13/36/37 203/133/37 202/130/37
f 17/29/87 18/28/87 208/134/87 207/135/87
f 16/39/88 17/29/88 207/135/88 206/136/88
f 15/35/34 16/39/34 206/136/34 205/137/34
f 15/35/35 205/137/35 204/132/35 14/10/35
f 84/138/1 92/139/1 118/140/2 112/141/2
f 103/142/3 105/143/3 92/139/3 84/138/3
f 102/144/89 95/145/90 87/146/91 82/147/92
f 114/148/93 113/149/93 86/150/94 83/151/95
f 85/152/93 106/153/93 113/149/93 114/148/93
f 103/142/93 101/154/93 106/153/93 85/152/93
f 102/144/11 104/155/11 89/156/11 83/151/11
f 185/157/93 121/158/93 126/159/93
f 112/141/2 118/140/2 90/160/12 82/147/12
f 84/138/93 88/161/93 101/154/93 103/142/93
f 91/162/93 115/163/93 116/164/93 105/143/93
f 85/152/3 91/162/3 105/143/3 103/142/3
f 82/147/11 90/160/11 104/155/11 102/144/11
f 83/151/95 86/150/94 95/145/90 102/144/89
f 99/165/93 110/166/93 109/167/93 98/168/93
f 132/169/13 128/170/14 87/146/14 108/171/13
f 96/172/96 87/146/91 95/145/90
f 95/145/90 86/150/94 94/173/97
f 100/174/93 111/175/93 110/166/93 99/165/93
f 98/168/93 109/167/93 108/171/98 97/176/98
f 93/177/99 107/178/99 111/175/93 100/174/93
f 108/171/98 87/146/91 96/172/96 97/176/98
f 93/177/99 94/173/97 86/150/94 107/178/99
f 83/151/19 89/156/19 115/163/20 114/148/20
f 82/147/92 87/146/91 117/179/93 112/141/93
f 104/155/93 90/160/93 118/140/93 116/164/93
f 116/164/93 118/140/93 92/139/93 105/143/93
f 112/141/93 117/179/93 88/161/93 84/138/93
f 114/148/20 115/163/20 91/162/21 85/152/21
f 89/156/93 104/155/93 116/164/93 115/163/93
f 130/180/22 139/181/23 119/182/23 88/161/22
f 139/181/23 140/183/24 120/184/24 119/182/23
f 140/183/24 153/185/25 185/157/25 120/184/24
f 145/186/26 142/187/27 122/188/27 125/189/26
f 142/187/27 143/190/28 123/191/28 122/188/27
f 101/154/93 88/161/93 119/182/93 127/192/93
f 120/184/93 124/193/93 127/192/93 119/182/93
f 185/157/93 126/159/93 124/193/93 120/184/93
f 101/154/93 127/192/93 123/191/93 106/153/93
f 127/192/93 124/193/93 122/188/93 123/191/93
f 152/194/29 145/186/26 125/189/26 182/195/29
f 125/189/93 122/188/93 124/193/93 126/159/93
f 182/195/93 125/189/93 126/159/93 121/158/93
f 106/153/30 123/191/28 143/190/28 138/196/30
f 113/149/31 106/153/30 138/196/30 136/197/31
f 86/150/32 113/149/31 136/197/31 129/198/32
f 107/178/33 86/150/32 129/198/32 131/199/33
f 111/175/34 107/178/34 131/199/34 135/200/34
f 110/166/35 111/175/35 135/200/35 134/201/35
f 109/167/36 110/166/36 134/201/36 133/202/36
f 108/171/37 109/167/37 133/202/37 132/169/37
f 88/161/22 117/179/38 137/203/38 130/180/22
f 117/179/38 87/146/14 128/170/14 137/203/38
f 121/204/11 144/70/11 152/69/11 182/205/11
f 144/70/11 121/204/11 185/206/11 153/71/11
f 153/207/39 154/208/39 146/209/100 185/210/101
f 156/211/42 155/212/42 189/213/42 147/214/42
f 155/212/43 152/215/43 182/216/43 189/213/43
f 186/217/93 190/218/93 193/219/93 187/220/93
f 154/208/44 157/221/45 191/222/45 146/209/44
f 159/223/46 160/224/48 148/225/48 195/226/102
f 201/227/93 194/228/93 196/229/93 199/230/93
f 162/231/49 159/223/46 195/226/102 150/232/103
f 157/221/45 161/233/51 151/234/51 191/222/45
f 161/233/52 162/231/49 150/232/103 151/234/104
f 149/235/54 200/236/55 164/237/55 163/238/54
f 192/239/54 149/235/54 163/238/54 158/240/54
f 147/214/105 192/239/106 158/240/57 156/211/57
f 200/236/55 148/225/59 160/224/59 164/237/55
f 186/217/93 187/220/93 181/241/93 184/242/93
f 198/243/93 201/227/93 199/230/93 197/244/93
f 187/220/93 188/245/93 183/246/93 181/241/93
f 190/218/93 198/243/93 197/244/93 193/219/93
f 169/247/60 170/248/60 166/249/60 165/250/60
f 176/251/61 171/252/61 168/253/61 173/254/61
f 171/252/62 172/255/63 167/256/63 168/253/62
f 178/257/64 169/247/65 165/250/65 177/258/64
f 179/259/93 177/258/93 165/250/93 166/249/93
f 168/253/93 167/256/93 174/260/93 173/254/93
f 172/255/63 175/261/66 174/260/66 167/256/63
f 180/262/61 176/251/61 173/254/61 179/259/61
f 170/248/61 180/262/61 179/259/61 166/249/61
f 173/254/93 174/260/93 177/258/93 179/259/93
f 175/261/66 178/257/64 177/258/64 174/260/66
f 121/263/107 181/241/107 183/246/107 182/216/107
f 184/242/108 185/210/101 146/209/100 186/217/108
f 187/220/109 147/214/109 189/213/109 188/245/109
f 186/217/110 146/209/110 191/222/111 190/218/112
f 147/214/105 187/220/113 193/219/113 192/239/106
f 194/228/114 195/226/102 148/225/115 196/229/115
f 197/244/116 149/235/117 192/239/118 193/219/118
f 151/234/104 198/243/119 190/218/112 191/222/111
f 196/229/120 148/225/120 200/236/121 199/230/122
f 199/230/122 200/236/121 149/235/117 197/244/116
f 195/226/102 194/228/114 201/227/123 150/232/103
f 150/232/103 201/227/123 198/243/119 151/234/104
f 188/245/124 189/213/124 182/216/124 183/246/124
f 185/210/107 184/242/107 181/241/107 121/263/107
f 100/174/85 209/264/85 202/265/85 93/177/85
f 95/145/36 94/173/36 203/266/36 204/267/36
f 99/165/86 208/268/86 209/264/86 100/174/86
f 93/177/37 202/265/37 203/266/37 94/173/37
f 98/168/87 207/269/87 208/268/87 99/165/87
f 97/176/88 206/270/88 207/269/88 98/168/88
f 96/172/34 205/271/34 206/270/34 97/176/34
f 96/172/35 95/145/35 204/267/35 205/271/35
